%TF.GenerationSoftware,KiCad,Pcbnew,10.0.1-1.fc44*%
%TF.CreationDate,2026-06-05T15:52:37+05:30*%
%TF.ProjectId,Led project,4c656420-7072-46f6-9a65-63742e6b6963,rev?*%
%TF.SameCoordinates,Original*%
%TF.FileFunction,Legend,Bot*%
%TF.FilePolarity,Positive*%
%FSLAX46Y46*%
G04 Gerber Fmt 4.6, Leading zero omitted, Abs format (unit mm)*
G04 Created by KiCad (PCBNEW 10.0.1-1.fc44) date 2026-06-05 15:52:37*
%MOMM*%
%LPD*%
G01*
G04 APERTURE LIST*
%ADD10C,0.200000*%
%ADD11C,0.010000*%
G04 APERTURE END LIST*
D10*
X172136279Y-99367219D02*
X172011279Y-98367219D01*
X172011279Y-98367219D02*
X171564850Y-99367219D01*
X171564850Y-99367219D02*
X171439850Y-98367219D01*
X171088660Y-99367219D02*
X171005326Y-98700552D01*
X170963660Y-98367219D02*
X171017231Y-98414838D01*
X171017231Y-98414838D02*
X170975564Y-98462457D01*
X170975564Y-98462457D02*
X170921993Y-98414838D01*
X170921993Y-98414838D02*
X170963660Y-98367219D01*
X170963660Y-98367219D02*
X170975564Y-98462457D01*
X170654136Y-99319600D02*
X170564851Y-99367219D01*
X170564851Y-99367219D02*
X170374374Y-99367219D01*
X170374374Y-99367219D02*
X170273184Y-99319600D01*
X170273184Y-99319600D02*
X170213660Y-99224361D01*
X170213660Y-99224361D02*
X170207708Y-99176742D01*
X170207708Y-99176742D02*
X170243422Y-99081504D01*
X170243422Y-99081504D02*
X170332708Y-99033885D01*
X170332708Y-99033885D02*
X170475565Y-99033885D01*
X170475565Y-99033885D02*
X170564851Y-98986266D01*
X170564851Y-98986266D02*
X170600565Y-98891028D01*
X170600565Y-98891028D02*
X170594613Y-98843409D01*
X170594613Y-98843409D02*
X170535089Y-98748171D01*
X170535089Y-98748171D02*
X170433898Y-98700552D01*
X170433898Y-98700552D02*
X170291041Y-98700552D01*
X170291041Y-98700552D02*
X170201755Y-98748171D01*
X169802946Y-99367219D02*
X169677946Y-98367219D01*
X169374374Y-99367219D02*
X169308898Y-98843409D01*
X169308898Y-98843409D02*
X169344612Y-98748171D01*
X169344612Y-98748171D02*
X169433898Y-98700552D01*
X169433898Y-98700552D02*
X169576755Y-98700552D01*
X169576755Y-98700552D02*
X169677946Y-98748171D01*
X169677946Y-98748171D02*
X169731517Y-98795790D01*
X168469612Y-99367219D02*
X168404136Y-98843409D01*
X168404136Y-98843409D02*
X168439850Y-98748171D01*
X168439850Y-98748171D02*
X168529136Y-98700552D01*
X168529136Y-98700552D02*
X168719612Y-98700552D01*
X168719612Y-98700552D02*
X168820803Y-98748171D01*
X168463660Y-99319600D02*
X168564850Y-99367219D01*
X168564850Y-99367219D02*
X168802946Y-99367219D01*
X168802946Y-99367219D02*
X168892231Y-99319600D01*
X168892231Y-99319600D02*
X168927946Y-99224361D01*
X168927946Y-99224361D02*
X168916041Y-99129123D01*
X168916041Y-99129123D02*
X168856517Y-99033885D01*
X168856517Y-99033885D02*
X168755327Y-98986266D01*
X168755327Y-98986266D02*
X168517231Y-98986266D01*
X168517231Y-98986266D02*
X168416041Y-98938647D01*
X167993422Y-99367219D02*
X167910088Y-98700552D01*
X167921993Y-98795790D02*
X167868422Y-98748171D01*
X167868422Y-98748171D02*
X167767231Y-98700552D01*
X167767231Y-98700552D02*
X167624374Y-98700552D01*
X167624374Y-98700552D02*
X167535088Y-98748171D01*
X167535088Y-98748171D02*
X167499374Y-98843409D01*
X167499374Y-98843409D02*
X167564850Y-99367219D01*
X167499374Y-98843409D02*
X167439850Y-98748171D01*
X167439850Y-98748171D02*
X167338660Y-98700552D01*
X167338660Y-98700552D02*
X167195803Y-98700552D01*
X167195803Y-98700552D02*
X167106517Y-98748171D01*
X167106517Y-98748171D02*
X167070803Y-98843409D01*
X167070803Y-98843409D02*
X167136279Y-99367219D01*
X165898184Y-99367219D02*
X165773184Y-98367219D01*
X165773184Y-98367219D02*
X165392231Y-98367219D01*
X165392231Y-98367219D02*
X165302946Y-98414838D01*
X165302946Y-98414838D02*
X165261279Y-98462457D01*
X165261279Y-98462457D02*
X165225565Y-98557695D01*
X165225565Y-98557695D02*
X165243422Y-98700552D01*
X165243422Y-98700552D02*
X165302946Y-98795790D01*
X165302946Y-98795790D02*
X165356517Y-98843409D01*
X165356517Y-98843409D02*
X165457707Y-98891028D01*
X165457707Y-98891028D02*
X165838660Y-98891028D01*
X164469612Y-99367219D02*
X164404136Y-98843409D01*
X164404136Y-98843409D02*
X164439850Y-98748171D01*
X164439850Y-98748171D02*
X164529136Y-98700552D01*
X164529136Y-98700552D02*
X164719612Y-98700552D01*
X164719612Y-98700552D02*
X164820803Y-98748171D01*
X164463660Y-99319600D02*
X164564850Y-99367219D01*
X164564850Y-99367219D02*
X164802946Y-99367219D01*
X164802946Y-99367219D02*
X164892231Y-99319600D01*
X164892231Y-99319600D02*
X164927946Y-99224361D01*
X164927946Y-99224361D02*
X164916041Y-99129123D01*
X164916041Y-99129123D02*
X164856517Y-99033885D01*
X164856517Y-99033885D02*
X164755327Y-98986266D01*
X164755327Y-98986266D02*
X164517231Y-98986266D01*
X164517231Y-98986266D02*
X164416041Y-98938647D01*
X163993422Y-99367219D02*
X163910088Y-98700552D01*
X163933898Y-98891028D02*
X163874374Y-98795790D01*
X163874374Y-98795790D02*
X163820803Y-98748171D01*
X163820803Y-98748171D02*
X163719612Y-98700552D01*
X163719612Y-98700552D02*
X163624374Y-98700552D01*
X162945802Y-99367219D02*
X162880326Y-98843409D01*
X162880326Y-98843409D02*
X162916040Y-98748171D01*
X162916040Y-98748171D02*
X163005326Y-98700552D01*
X163005326Y-98700552D02*
X163195802Y-98700552D01*
X163195802Y-98700552D02*
X163296993Y-98748171D01*
X162939850Y-99319600D02*
X163041040Y-99367219D01*
X163041040Y-99367219D02*
X163279136Y-99367219D01*
X163279136Y-99367219D02*
X163368421Y-99319600D01*
X163368421Y-99319600D02*
X163404136Y-99224361D01*
X163404136Y-99224361D02*
X163392231Y-99129123D01*
X163392231Y-99129123D02*
X163332707Y-99033885D01*
X163332707Y-99033885D02*
X163231517Y-98986266D01*
X163231517Y-98986266D02*
X162993421Y-98986266D01*
X162993421Y-98986266D02*
X162892231Y-98938647D01*
X162469612Y-99367219D02*
X162344612Y-98367219D01*
X162326755Y-98986266D02*
X162088659Y-99367219D01*
X162005326Y-98700552D02*
X162433897Y-99081504D01*
X161660088Y-99367219D02*
X161535088Y-98367219D01*
X161517231Y-98986266D02*
X161279135Y-99367219D01*
X161195802Y-98700552D02*
X161624373Y-99081504D01*
X160421992Y-99367219D02*
X160356516Y-98843409D01*
X160356516Y-98843409D02*
X160392230Y-98748171D01*
X160392230Y-98748171D02*
X160481516Y-98700552D01*
X160481516Y-98700552D02*
X160671992Y-98700552D01*
X160671992Y-98700552D02*
X160773183Y-98748171D01*
X160416040Y-99319600D02*
X160517230Y-99367219D01*
X160517230Y-99367219D02*
X160755326Y-99367219D01*
X160755326Y-99367219D02*
X160844611Y-99319600D01*
X160844611Y-99319600D02*
X160880326Y-99224361D01*
X160880326Y-99224361D02*
X160868421Y-99129123D01*
X160868421Y-99129123D02*
X160808897Y-99033885D01*
X160808897Y-99033885D02*
X160707707Y-98986266D01*
X160707707Y-98986266D02*
X160469611Y-98986266D01*
X160469611Y-98986266D02*
X160368421Y-98938647D01*
X159802945Y-99367219D02*
X159892230Y-99319600D01*
X159892230Y-99319600D02*
X159927945Y-99224361D01*
X159927945Y-99224361D02*
X159820802Y-98367219D01*
D11*
%TO.C,REF\u002A\u002A*%
X161855406Y-94774949D02*
X161881127Y-94790647D01*
X161907778Y-94812227D01*
X161907778Y-95459684D01*
X161881127Y-95481264D01*
X161849767Y-95498739D01*
X161813966Y-95499575D01*
X161782528Y-95479082D01*
X161778652Y-95474416D01*
X161773186Y-95464949D01*
X161768979Y-95451267D01*
X161765867Y-95430748D01*
X161763687Y-95400768D01*
X161762276Y-95358704D01*
X161761471Y-95301932D01*
X161761107Y-95227830D01*
X161761022Y-95133773D01*
X161761022Y-94812227D01*
X161787673Y-94790647D01*
X161811386Y-94775877D01*
X161834400Y-94769067D01*
X161855406Y-94774949D01*
G36*
X161855406Y-94774949D02*
G01*
X161881127Y-94790647D01*
X161907778Y-94812227D01*
X161907778Y-95459684D01*
X161881127Y-95481264D01*
X161849767Y-95498739D01*
X161813966Y-95499575D01*
X161782528Y-95479082D01*
X161778652Y-95474416D01*
X161773186Y-95464949D01*
X161768979Y-95451267D01*
X161765867Y-95430748D01*
X161763687Y-95400768D01*
X161762276Y-95358704D01*
X161761471Y-95301932D01*
X161761107Y-95227830D01*
X161761022Y-95133773D01*
X161761022Y-94812227D01*
X161787673Y-94790647D01*
X161811386Y-94775877D01*
X161834400Y-94769067D01*
X161855406Y-94774949D01*
G37*
X168986137Y-94773463D02*
X169020291Y-94796776D01*
X169048000Y-94824485D01*
X169048000Y-95137537D01*
X169047959Y-95221567D01*
X169047701Y-95295789D01*
X169047030Y-95352541D01*
X169045752Y-95394512D01*
X169043673Y-95424389D01*
X169040599Y-95444861D01*
X169036334Y-95458614D01*
X169030684Y-95468337D01*
X169023455Y-95476717D01*
X168991991Y-95498181D01*
X168956826Y-95499947D01*
X168923822Y-95480267D01*
X168918516Y-95474398D01*
X168913066Y-95465314D01*
X168908900Y-95451973D01*
X168905846Y-95431757D01*
X168903732Y-95402049D01*
X168902386Y-95360232D01*
X168901638Y-95303689D01*
X168901314Y-95229802D01*
X168901245Y-95135956D01*
X168901284Y-95060294D01*
X168901539Y-94982385D01*
X168902183Y-94922375D01*
X168903387Y-94877648D01*
X168905324Y-94845585D01*
X168908164Y-94823571D01*
X168912079Y-94808987D01*
X168917242Y-94799218D01*
X168923822Y-94791645D01*
X168953006Y-94772623D01*
X168986137Y-94773463D01*
G36*
X168986137Y-94773463D02*
G01*
X169020291Y-94796776D01*
X169048000Y-94824485D01*
X169048000Y-95137537D01*
X169047959Y-95221567D01*
X169047701Y-95295789D01*
X169047030Y-95352541D01*
X169045752Y-95394512D01*
X169043673Y-95424389D01*
X169040599Y-95444861D01*
X169036334Y-95458614D01*
X169030684Y-95468337D01*
X169023455Y-95476717D01*
X168991991Y-95498181D01*
X168956826Y-95499947D01*
X168923822Y-95480267D01*
X168918516Y-95474398D01*
X168913066Y-95465314D01*
X168908900Y-95451973D01*
X168905846Y-95431757D01*
X168903732Y-95402049D01*
X168902386Y-95360232D01*
X168901638Y-95303689D01*
X168901314Y-95229802D01*
X168901245Y-95135956D01*
X168901284Y-95060294D01*
X168901539Y-94982385D01*
X168902183Y-94922375D01*
X168903387Y-94877648D01*
X168905324Y-94845585D01*
X168908164Y-94823571D01*
X168912079Y-94808987D01*
X168917242Y-94799218D01*
X168923822Y-94791645D01*
X168953006Y-94772623D01*
X168986137Y-94773463D01*
G37*
X168454562Y-89532850D02*
X168537313Y-89560053D01*
X168612406Y-89605484D01*
X168684298Y-89671302D01*
X168722846Y-89715567D01*
X168762256Y-89773961D01*
X168787446Y-89834586D01*
X168800861Y-89903865D01*
X168804948Y-89988222D01*
X168804669Y-90034307D01*
X168802460Y-90075450D01*
X168796894Y-90107582D01*
X168786586Y-90138122D01*
X168770148Y-90174489D01*
X168756200Y-90201728D01*
X168697665Y-90287429D01*
X168625619Y-90356617D01*
X168541947Y-90407741D01*
X168448531Y-90439250D01*
X168415434Y-90446225D01*
X168374960Y-90453094D01*
X168341999Y-90454919D01*
X168307698Y-90451947D01*
X168263200Y-90444426D01*
X168211934Y-90432002D01*
X168121434Y-90394112D01*
X168042345Y-90339836D01*
X167976528Y-90271770D01*
X167925840Y-90192511D01*
X167892140Y-90104654D01*
X167877286Y-90010795D01*
X167883136Y-89913530D01*
X167909399Y-89817220D01*
X167954418Y-89728494D01*
X168015373Y-89653419D01*
X168090184Y-89593641D01*
X168176768Y-89550809D01*
X168273043Y-89526571D01*
X168376928Y-89522576D01*
X168454562Y-89532850D01*
G36*
X168454562Y-89532850D02*
G01*
X168537313Y-89560053D01*
X168612406Y-89605484D01*
X168684298Y-89671302D01*
X168722846Y-89715567D01*
X168762256Y-89773961D01*
X168787446Y-89834586D01*
X168800861Y-89903865D01*
X168804948Y-89988222D01*
X168804669Y-90034307D01*
X168802460Y-90075450D01*
X168796894Y-90107582D01*
X168786586Y-90138122D01*
X168770148Y-90174489D01*
X168756200Y-90201728D01*
X168697665Y-90287429D01*
X168625619Y-90356617D01*
X168541947Y-90407741D01*
X168448531Y-90439250D01*
X168415434Y-90446225D01*
X168374960Y-90453094D01*
X168341999Y-90454919D01*
X168307698Y-90451947D01*
X168263200Y-90444426D01*
X168211934Y-90432002D01*
X168121434Y-90394112D01*
X168042345Y-90339836D01*
X167976528Y-90271770D01*
X167925840Y-90192511D01*
X167892140Y-90104654D01*
X167877286Y-90010795D01*
X167883136Y-89913530D01*
X167909399Y-89817220D01*
X167954418Y-89728494D01*
X168015373Y-89653419D01*
X168090184Y-89593641D01*
X168176768Y-89550809D01*
X168273043Y-89526571D01*
X168376928Y-89522576D01*
X168454562Y-89532850D01*
G37*
X161155767Y-94769068D02*
X161249890Y-94769158D01*
X161324405Y-94769498D01*
X161381811Y-94770239D01*
X161424611Y-94771535D01*
X161455304Y-94773537D01*
X161476391Y-94776396D01*
X161490373Y-94780266D01*
X161499750Y-94785298D01*
X161507022Y-94791645D01*
X161525828Y-94824362D01*
X161527275Y-94861939D01*
X161510917Y-94895178D01*
X161509557Y-94896631D01*
X161498354Y-94904992D01*
X161481252Y-94910547D01*
X161454082Y-94913840D01*
X161412678Y-94915418D01*
X161352873Y-94915822D01*
X161213511Y-94915822D01*
X161213511Y-95179589D01*
X161213436Y-95255417D01*
X161213028Y-95322083D01*
X161212046Y-95371867D01*
X161210250Y-95407784D01*
X161207399Y-95432850D01*
X161203253Y-95450081D01*
X161197571Y-95462492D01*
X161190114Y-95473100D01*
X161187824Y-95475906D01*
X161156646Y-95498548D01*
X161122266Y-95500112D01*
X161089334Y-95480267D01*
X161082355Y-95472191D01*
X161076883Y-95461593D01*
X161072863Y-95445749D01*
X161070072Y-95421773D01*
X161068288Y-95386774D01*
X161067289Y-95337864D01*
X161066852Y-95272154D01*
X161066756Y-95186756D01*
X161066756Y-94915822D01*
X160920820Y-94915822D01*
X160909720Y-94915821D01*
X160853202Y-94915596D01*
X160814358Y-94914457D01*
X160788965Y-94911657D01*
X160772804Y-94906450D01*
X160761652Y-94898089D01*
X160751289Y-94885826D01*
X160735441Y-94855138D01*
X160738543Y-94821358D01*
X160764187Y-94788822D01*
X160769129Y-94785105D01*
X160779338Y-94780269D01*
X160794764Y-94776506D01*
X160817886Y-94773683D01*
X160851183Y-94771670D01*
X160897137Y-94770333D01*
X160958228Y-94769542D01*
X161036935Y-94769163D01*
X161135740Y-94769067D01*
X161155767Y-94769068D01*
G36*
X161155767Y-94769068D02*
G01*
X161249890Y-94769158D01*
X161324405Y-94769498D01*
X161381811Y-94770239D01*
X161424611Y-94771535D01*
X161455304Y-94773537D01*
X161476391Y-94776396D01*
X161490373Y-94780266D01*
X161499750Y-94785298D01*
X161507022Y-94791645D01*
X161525828Y-94824362D01*
X161527275Y-94861939D01*
X161510917Y-94895178D01*
X161509557Y-94896631D01*
X161498354Y-94904992D01*
X161481252Y-94910547D01*
X161454082Y-94913840D01*
X161412678Y-94915418D01*
X161352873Y-94915822D01*
X161213511Y-94915822D01*
X161213511Y-95179589D01*
X161213436Y-95255417D01*
X161213028Y-95322083D01*
X161212046Y-95371867D01*
X161210250Y-95407784D01*
X161207399Y-95432850D01*
X161203253Y-95450081D01*
X161197571Y-95462492D01*
X161190114Y-95473100D01*
X161187824Y-95475906D01*
X161156646Y-95498548D01*
X161122266Y-95500112D01*
X161089334Y-95480267D01*
X161082355Y-95472191D01*
X161076883Y-95461593D01*
X161072863Y-95445749D01*
X161070072Y-95421773D01*
X161068288Y-95386774D01*
X161067289Y-95337864D01*
X161066852Y-95272154D01*
X161066756Y-95186756D01*
X161066756Y-94915822D01*
X160920820Y-94915822D01*
X160909720Y-94915821D01*
X160853202Y-94915596D01*
X160814358Y-94914457D01*
X160788965Y-94911657D01*
X160772804Y-94906450D01*
X160761652Y-94898089D01*
X160751289Y-94885826D01*
X160735441Y-94855138D01*
X160738543Y-94821358D01*
X160764187Y-94788822D01*
X160769129Y-94785105D01*
X160779338Y-94780269D01*
X160794764Y-94776506D01*
X160817886Y-94773683D01*
X160851183Y-94771670D01*
X160897137Y-94770333D01*
X160958228Y-94769542D01*
X161036935Y-94769163D01*
X161135740Y-94769067D01*
X161155767Y-94769068D01*
G37*
X160479734Y-94791645D02*
X160485366Y-94797835D01*
X160490456Y-94806041D01*
X160494543Y-94817817D01*
X160497721Y-94835276D01*
X160500087Y-94860530D01*
X160501738Y-94895690D01*
X160502769Y-94942869D01*
X160503277Y-95004177D01*
X160503359Y-95081727D01*
X160503109Y-95177631D01*
X160502625Y-95294000D01*
X160502557Y-95308175D01*
X160501971Y-95369937D01*
X160500648Y-95413620D01*
X160498103Y-95443001D01*
X160493848Y-95461855D01*
X160487396Y-95473959D01*
X160478262Y-95483089D01*
X160444804Y-95500506D01*
X160409856Y-95497604D01*
X160378953Y-95473100D01*
X160369944Y-95459897D01*
X160362492Y-95441361D01*
X160358124Y-95415333D01*
X160356069Y-95376787D01*
X160355556Y-95320700D01*
X160355556Y-95198045D01*
X159858845Y-95198045D01*
X159858845Y-95332871D01*
X159858772Y-95368662D01*
X159858009Y-95414992D01*
X159855833Y-95445526D01*
X159851536Y-95464557D01*
X159844412Y-95476374D01*
X159833755Y-95485271D01*
X159801504Y-95500341D01*
X159766217Y-95497673D01*
X159735486Y-95473100D01*
X159730831Y-95466845D01*
X159724895Y-95456321D01*
X159720364Y-95442391D01*
X159717048Y-95422317D01*
X159714759Y-95393360D01*
X159713308Y-95352780D01*
X159712505Y-95297840D01*
X159712162Y-95225799D01*
X159712089Y-95133920D01*
X159712089Y-94824485D01*
X159739798Y-94796776D01*
X159771177Y-94774533D01*
X159804406Y-94771844D01*
X159836267Y-94791645D01*
X159844553Y-94801415D01*
X159851965Y-94817307D01*
X159856302Y-94841275D01*
X159858338Y-94878148D01*
X159858845Y-94932756D01*
X159858845Y-95051289D01*
X160355556Y-95051289D01*
X160355556Y-94935776D01*
X160355994Y-94884078D01*
X160357958Y-94849554D01*
X160362474Y-94826978D01*
X160370567Y-94811126D01*
X160383265Y-94796776D01*
X160414643Y-94774533D01*
X160447872Y-94771844D01*
X160479734Y-94791645D01*
G36*
X160479734Y-94791645D02*
G01*
X160485366Y-94797835D01*
X160490456Y-94806041D01*
X160494543Y-94817817D01*
X160497721Y-94835276D01*
X160500087Y-94860530D01*
X160501738Y-94895690D01*
X160502769Y-94942869D01*
X160503277Y-95004177D01*
X160503359Y-95081727D01*
X160503109Y-95177631D01*
X160502625Y-95294000D01*
X160502557Y-95308175D01*
X160501971Y-95369937D01*
X160500648Y-95413620D01*
X160498103Y-95443001D01*
X160493848Y-95461855D01*
X160487396Y-95473959D01*
X160478262Y-95483089D01*
X160444804Y-95500506D01*
X160409856Y-95497604D01*
X160378953Y-95473100D01*
X160369944Y-95459897D01*
X160362492Y-95441361D01*
X160358124Y-95415333D01*
X160356069Y-95376787D01*
X160355556Y-95320700D01*
X160355556Y-95198045D01*
X159858845Y-95198045D01*
X159858845Y-95332871D01*
X159858772Y-95368662D01*
X159858009Y-95414992D01*
X159855833Y-95445526D01*
X159851536Y-95464557D01*
X159844412Y-95476374D01*
X159833755Y-95485271D01*
X159801504Y-95500341D01*
X159766217Y-95497673D01*
X159735486Y-95473100D01*
X159730831Y-95466845D01*
X159724895Y-95456321D01*
X159720364Y-95442391D01*
X159717048Y-95422317D01*
X159714759Y-95393360D01*
X159713308Y-95352780D01*
X159712505Y-95297840D01*
X159712162Y-95225799D01*
X159712089Y-95133920D01*
X159712089Y-94824485D01*
X159739798Y-94796776D01*
X159771177Y-94774533D01*
X159804406Y-94771844D01*
X159836267Y-94791645D01*
X159844553Y-94801415D01*
X159851965Y-94817307D01*
X159856302Y-94841275D01*
X159858338Y-94878148D01*
X159858845Y-94932756D01*
X159858845Y-95051289D01*
X160355556Y-95051289D01*
X160355556Y-94935776D01*
X160355994Y-94884078D01*
X160357958Y-94849554D01*
X160362474Y-94826978D01*
X160370567Y-94811126D01*
X160383265Y-94796776D01*
X160414643Y-94774533D01*
X160447872Y-94771844D01*
X160479734Y-94791645D01*
G37*
X165185133Y-95380396D02*
X165183163Y-95413175D01*
X165180235Y-95436095D01*
X165176158Y-95451897D01*
X165170743Y-95463319D01*
X165163803Y-95473100D01*
X165140406Y-95502845D01*
X164974714Y-95502251D01*
X164939918Y-95501953D01*
X164841435Y-95498522D01*
X164760473Y-95490839D01*
X164693379Y-95478282D01*
X164636496Y-95460227D01*
X164586169Y-95436052D01*
X164582810Y-95434135D01*
X164524998Y-95397417D01*
X164482644Y-95360451D01*
X164449828Y-95316966D01*
X164420628Y-95260689D01*
X164416346Y-95251073D01*
X164393769Y-95187887D01*
X164388034Y-95142333D01*
X164537279Y-95142333D01*
X164542892Y-95167061D01*
X164548618Y-95182939D01*
X164581548Y-95242847D01*
X164628886Y-95288600D01*
X164692652Y-95321736D01*
X164774861Y-95343790D01*
X164777655Y-95344292D01*
X164823940Y-95350255D01*
X164880336Y-95354483D01*
X164935274Y-95356089D01*
X165029156Y-95356089D01*
X165029156Y-94915822D01*
X164941667Y-94916270D01*
X164874747Y-94918746D01*
X164782349Y-94929998D01*
X164703034Y-94949537D01*
X164641060Y-94976511D01*
X164610120Y-94997240D01*
X164582000Y-95027006D01*
X164558660Y-95069434D01*
X164551533Y-95085400D01*
X164539709Y-95117902D01*
X164537279Y-95142333D01*
X164388034Y-95142333D01*
X164386797Y-95132509D01*
X164395399Y-95077483D01*
X164419541Y-95015351D01*
X164420337Y-95013658D01*
X164460788Y-94944236D01*
X164511473Y-94887638D01*
X164574198Y-94843070D01*
X164650774Y-94809741D01*
X164743009Y-94786861D01*
X164852712Y-94773636D01*
X164981691Y-94769275D01*
X164985263Y-94769270D01*
X165045283Y-94769410D01*
X165087214Y-94770446D01*
X165115328Y-94773040D01*
X165133897Y-94777853D01*
X165147194Y-94785544D01*
X165159491Y-94796776D01*
X165187200Y-94824485D01*
X165187200Y-95133920D01*
X165187175Y-95195526D01*
X165186950Y-95274311D01*
X165186332Y-95335021D01*
X165185775Y-95356089D01*
X165185133Y-95380396D01*
G36*
X165185133Y-95380396D02*
G01*
X165183163Y-95413175D01*
X165180235Y-95436095D01*
X165176158Y-95451897D01*
X165170743Y-95463319D01*
X165163803Y-95473100D01*
X165140406Y-95502845D01*
X164974714Y-95502251D01*
X164939918Y-95501953D01*
X164841435Y-95498522D01*
X164760473Y-95490839D01*
X164693379Y-95478282D01*
X164636496Y-95460227D01*
X164586169Y-95436052D01*
X164582810Y-95434135D01*
X164524998Y-95397417D01*
X164482644Y-95360451D01*
X164449828Y-95316966D01*
X164420628Y-95260689D01*
X164416346Y-95251073D01*
X164393769Y-95187887D01*
X164388034Y-95142333D01*
X164537279Y-95142333D01*
X164542892Y-95167061D01*
X164548618Y-95182939D01*
X164581548Y-95242847D01*
X164628886Y-95288600D01*
X164692652Y-95321736D01*
X164774861Y-95343790D01*
X164777655Y-95344292D01*
X164823940Y-95350255D01*
X164880336Y-95354483D01*
X164935274Y-95356089D01*
X165029156Y-95356089D01*
X165029156Y-94915822D01*
X164941667Y-94916270D01*
X164874747Y-94918746D01*
X164782349Y-94929998D01*
X164703034Y-94949537D01*
X164641060Y-94976511D01*
X164610120Y-94997240D01*
X164582000Y-95027006D01*
X164558660Y-95069434D01*
X164551533Y-95085400D01*
X164539709Y-95117902D01*
X164537279Y-95142333D01*
X164388034Y-95142333D01*
X164386797Y-95132509D01*
X164395399Y-95077483D01*
X164419541Y-95015351D01*
X164420337Y-95013658D01*
X164460788Y-94944236D01*
X164511473Y-94887638D01*
X164574198Y-94843070D01*
X164650774Y-94809741D01*
X164743009Y-94786861D01*
X164852712Y-94773636D01*
X164981691Y-94769275D01*
X164985263Y-94769270D01*
X165045283Y-94769410D01*
X165087214Y-94770446D01*
X165115328Y-94773040D01*
X165133897Y-94777853D01*
X165147194Y-94785544D01*
X165159491Y-94796776D01*
X165187200Y-94824485D01*
X165187200Y-95133920D01*
X165187175Y-95195526D01*
X165186950Y-95274311D01*
X165186332Y-95335021D01*
X165185775Y-95356089D01*
X165185133Y-95380396D01*
G37*
X172276817Y-94954427D02*
X172276870Y-95035041D01*
X172276622Y-95135956D01*
X172276583Y-95211617D01*
X172276328Y-95289526D01*
X172275684Y-95349536D01*
X172274480Y-95394264D01*
X172272543Y-95426326D01*
X172269703Y-95448340D01*
X172265788Y-95462924D01*
X172260626Y-95472694D01*
X172254045Y-95480267D01*
X172247077Y-95486501D01*
X172234079Y-95493801D01*
X172214931Y-95498554D01*
X172185528Y-95501292D01*
X172141762Y-95502545D01*
X172079528Y-95502845D01*
X172030582Y-95502469D01*
X171923722Y-95498041D01*
X171834494Y-95487953D01*
X171759696Y-95471365D01*
X171696125Y-95447435D01*
X171640579Y-95415321D01*
X171589854Y-95374182D01*
X171583866Y-95368330D01*
X171546999Y-95319821D01*
X171515899Y-95259013D01*
X171494417Y-95194769D01*
X171489136Y-95156026D01*
X171636353Y-95156026D01*
X171654635Y-95206961D01*
X171684305Y-95252878D01*
X171731002Y-95295287D01*
X171792392Y-95325090D01*
X171871538Y-95344226D01*
X171873028Y-95344464D01*
X171921999Y-95350256D01*
X171980693Y-95354396D01*
X172036734Y-95356004D01*
X172129867Y-95356089D01*
X172129867Y-94915822D01*
X172053667Y-94915808D01*
X172050639Y-94915817D01*
X171999519Y-94917782D01*
X171939416Y-94922507D01*
X171882708Y-94929035D01*
X171832750Y-94938331D01*
X171757998Y-94964600D01*
X171700489Y-95003899D01*
X171658988Y-95056933D01*
X171637771Y-95108200D01*
X171636353Y-95156026D01*
X171489136Y-95156026D01*
X171486400Y-95135956D01*
X171487679Y-95114739D01*
X171499991Y-95057323D01*
X171522520Y-94997413D01*
X171551750Y-94943363D01*
X171584167Y-94903532D01*
X171603708Y-94886510D01*
X171658420Y-94847322D01*
X171718723Y-94817193D01*
X171787919Y-94795232D01*
X171869311Y-94780550D01*
X171966200Y-94772259D01*
X172081889Y-94769467D01*
X172121371Y-94769066D01*
X172167082Y-94768653D01*
X172202883Y-94770457D01*
X172229974Y-94776739D01*
X172249556Y-94789759D01*
X172262830Y-94811778D01*
X172270998Y-94845055D01*
X172275260Y-94891851D01*
X172275857Y-94915822D01*
X172276817Y-94954427D01*
G36*
X172276817Y-94954427D02*
G01*
X172276870Y-95035041D01*
X172276622Y-95135956D01*
X172276583Y-95211617D01*
X172276328Y-95289526D01*
X172275684Y-95349536D01*
X172274480Y-95394264D01*
X172272543Y-95426326D01*
X172269703Y-95448340D01*
X172265788Y-95462924D01*
X172260626Y-95472694D01*
X172254045Y-95480267D01*
X172247077Y-95486501D01*
X172234079Y-95493801D01*
X172214931Y-95498554D01*
X172185528Y-95501292D01*
X172141762Y-95502545D01*
X172079528Y-95502845D01*
X172030582Y-95502469D01*
X171923722Y-95498041D01*
X171834494Y-95487953D01*
X171759696Y-95471365D01*
X171696125Y-95447435D01*
X171640579Y-95415321D01*
X171589854Y-95374182D01*
X171583866Y-95368330D01*
X171546999Y-95319821D01*
X171515899Y-95259013D01*
X171494417Y-95194769D01*
X171489136Y-95156026D01*
X171636353Y-95156026D01*
X171654635Y-95206961D01*
X171684305Y-95252878D01*
X171731002Y-95295287D01*
X171792392Y-95325090D01*
X171871538Y-95344226D01*
X171873028Y-95344464D01*
X171921999Y-95350256D01*
X171980693Y-95354396D01*
X172036734Y-95356004D01*
X172129867Y-95356089D01*
X172129867Y-94915822D01*
X172053667Y-94915808D01*
X172050639Y-94915817D01*
X171999519Y-94917782D01*
X171939416Y-94922507D01*
X171882708Y-94929035D01*
X171832750Y-94938331D01*
X171757998Y-94964600D01*
X171700489Y-95003899D01*
X171658988Y-95056933D01*
X171637771Y-95108200D01*
X171636353Y-95156026D01*
X171489136Y-95156026D01*
X171486400Y-95135956D01*
X171487679Y-95114739D01*
X171499991Y-95057323D01*
X171522520Y-94997413D01*
X171551750Y-94943363D01*
X171584167Y-94903532D01*
X171603708Y-94886510D01*
X171658420Y-94847322D01*
X171718723Y-94817193D01*
X171787919Y-94795232D01*
X171869311Y-94780550D01*
X171966200Y-94772259D01*
X172081889Y-94769467D01*
X172121371Y-94769066D01*
X172167082Y-94768653D01*
X172202883Y-94770457D01*
X172229974Y-94776739D01*
X172249556Y-94789759D01*
X172262830Y-94811778D01*
X172270998Y-94845055D01*
X172275260Y-94891851D01*
X172275857Y-94915822D01*
X172276817Y-94954427D01*
G37*
X167331893Y-94767892D02*
X167343301Y-94774029D01*
X167353850Y-94784691D01*
X167365136Y-94798811D01*
X167369589Y-94804772D01*
X167375588Y-94815268D01*
X167380167Y-94829093D01*
X167383519Y-94848998D01*
X167385833Y-94877732D01*
X167387301Y-94918045D01*
X167388113Y-94972687D01*
X167388460Y-95044407D01*
X167388534Y-95135956D01*
X167388511Y-95194486D01*
X167388292Y-95273573D01*
X167387683Y-95334516D01*
X167386492Y-95380062D01*
X167384529Y-95412963D01*
X167381603Y-95435968D01*
X167377523Y-95451826D01*
X167372097Y-95463286D01*
X167365136Y-95473100D01*
X167334708Y-95497493D01*
X167299765Y-95500372D01*
X167262784Y-95481282D01*
X167258600Y-95477807D01*
X167250424Y-95469279D01*
X167244364Y-95457728D01*
X167239981Y-95439896D01*
X167236839Y-95412524D01*
X167234502Y-95372354D01*
X167232531Y-95316128D01*
X167230489Y-95240589D01*
X167224845Y-95021458D01*
X166959556Y-95262099D01*
X166885722Y-95328875D01*
X166820542Y-95386991D01*
X166768348Y-95431949D01*
X166727273Y-95464871D01*
X166695455Y-95486879D01*
X166671026Y-95499094D01*
X166652124Y-95502639D01*
X166636883Y-95498636D01*
X166623439Y-95488207D01*
X166609927Y-95472474D01*
X166603682Y-95463991D01*
X166598050Y-95453413D01*
X166593839Y-95439255D01*
X166590887Y-95418803D01*
X166589032Y-95389342D01*
X166588113Y-95348161D01*
X166587968Y-95292544D01*
X166588435Y-95219779D01*
X166589352Y-95127151D01*
X166592667Y-94812199D01*
X166619318Y-94790633D01*
X166645383Y-94774441D01*
X166678241Y-94771670D01*
X166712772Y-94790623D01*
X166717084Y-94794208D01*
X166725216Y-94802737D01*
X166731245Y-94814329D01*
X166735606Y-94832235D01*
X166738734Y-94859706D01*
X166741063Y-94899994D01*
X166743029Y-94956351D01*
X166745067Y-95032029D01*
X166750711Y-95251878D01*
X166931334Y-95088084D01*
X167018072Y-95009451D01*
X167093843Y-94941058D01*
X167155980Y-94885708D01*
X167206078Y-94842338D01*
X167245735Y-94809881D01*
X167276548Y-94787273D01*
X167300114Y-94773448D01*
X167318030Y-94767343D01*
X167331893Y-94767892D01*
G36*
X167331893Y-94767892D02*
G01*
X167343301Y-94774029D01*
X167353850Y-94784691D01*
X167365136Y-94798811D01*
X167369589Y-94804772D01*
X167375588Y-94815268D01*
X167380167Y-94829093D01*
X167383519Y-94848998D01*
X167385833Y-94877732D01*
X167387301Y-94918045D01*
X167388113Y-94972687D01*
X167388460Y-95044407D01*
X167388534Y-95135956D01*
X167388511Y-95194486D01*
X167388292Y-95273573D01*
X167387683Y-95334516D01*
X167386492Y-95380062D01*
X167384529Y-95412963D01*
X167381603Y-95435968D01*
X167377523Y-95451826D01*
X167372097Y-95463286D01*
X167365136Y-95473100D01*
X167334708Y-95497493D01*
X167299765Y-95500372D01*
X167262784Y-95481282D01*
X167258600Y-95477807D01*
X167250424Y-95469279D01*
X167244364Y-95457728D01*
X167239981Y-95439896D01*
X167236839Y-95412524D01*
X167234502Y-95372354D01*
X167232531Y-95316128D01*
X167230489Y-95240589D01*
X167224845Y-95021458D01*
X166959556Y-95262099D01*
X166885722Y-95328875D01*
X166820542Y-95386991D01*
X166768348Y-95431949D01*
X166727273Y-95464871D01*
X166695455Y-95486879D01*
X166671026Y-95499094D01*
X166652124Y-95502639D01*
X166636883Y-95498636D01*
X166623439Y-95488207D01*
X166609927Y-95472474D01*
X166603682Y-95463991D01*
X166598050Y-95453413D01*
X166593839Y-95439255D01*
X166590887Y-95418803D01*
X166589032Y-95389342D01*
X166588113Y-95348161D01*
X166587968Y-95292544D01*
X166588435Y-95219779D01*
X166589352Y-95127151D01*
X166592667Y-94812199D01*
X166619318Y-94790633D01*
X166645383Y-94774441D01*
X166678241Y-94771670D01*
X166712772Y-94790623D01*
X166717084Y-94794208D01*
X166725216Y-94802737D01*
X166731245Y-94814329D01*
X166735606Y-94832235D01*
X166738734Y-94859706D01*
X166741063Y-94899994D01*
X166743029Y-94956351D01*
X166745067Y-95032029D01*
X166750711Y-95251878D01*
X166931334Y-95088084D01*
X167018072Y-95009451D01*
X167093843Y-94941058D01*
X167155980Y-94885708D01*
X167206078Y-94842338D01*
X167245735Y-94809881D01*
X167276548Y-94787273D01*
X167300114Y-94773448D01*
X167318030Y-94767343D01*
X167331893Y-94767892D01*
G37*
X168129150Y-94774179D02*
X168235157Y-94790494D01*
X168328969Y-94818545D01*
X168407765Y-94857452D01*
X168468719Y-94906334D01*
X168494789Y-94939195D01*
X168524297Y-94988394D01*
X168549568Y-95042252D01*
X168567218Y-95093419D01*
X168573858Y-95134544D01*
X168572298Y-95154259D01*
X168559357Y-95205592D01*
X168536194Y-95262118D01*
X168506302Y-95316035D01*
X168473173Y-95359539D01*
X168462977Y-95369887D01*
X168395892Y-95421662D01*
X168315766Y-95461554D01*
X168229556Y-95485956D01*
X168174592Y-95494068D01*
X168081139Y-95500673D01*
X167991358Y-95498586D01*
X167908869Y-95488340D01*
X167837286Y-95470470D01*
X167780228Y-95445508D01*
X167741311Y-95413988D01*
X167739936Y-95412012D01*
X167732848Y-95386786D01*
X167728609Y-95339535D01*
X167727200Y-95270071D01*
X167728060Y-95207838D01*
X167732780Y-95160456D01*
X167744470Y-95128353D01*
X167766239Y-95108800D01*
X167801198Y-95099070D01*
X167852456Y-95096433D01*
X167923123Y-95098161D01*
X167971743Y-95101173D01*
X168021939Y-95109366D01*
X168054433Y-95123419D01*
X168071892Y-95144654D01*
X168076983Y-95174394D01*
X168076877Y-95178936D01*
X168068175Y-95213730D01*
X168044165Y-95237147D01*
X168002900Y-95250347D01*
X167942431Y-95254489D01*
X167873956Y-95254489D01*
X167873956Y-95292841D01*
X167874006Y-95301976D01*
X167876227Y-95319227D01*
X167885494Y-95329521D01*
X167906875Y-95336459D01*
X167945436Y-95343641D01*
X167950910Y-95344575D01*
X168047860Y-95354478D01*
X168137852Y-95351559D01*
X168218760Y-95336829D01*
X168288459Y-95311299D01*
X168344824Y-95275978D01*
X168385729Y-95231879D01*
X168409051Y-95180012D01*
X168412663Y-95121388D01*
X168407145Y-95092494D01*
X168380461Y-95036604D01*
X168334273Y-94990945D01*
X168269291Y-94956108D01*
X168186229Y-94932690D01*
X168161555Y-94928241D01*
X168072226Y-94917742D01*
X167992419Y-94918971D01*
X167914326Y-94931906D01*
X167879183Y-94938696D01*
X167833745Y-94939713D01*
X167802430Y-94927182D01*
X167782277Y-94900395D01*
X167775893Y-94872148D01*
X167785379Y-94840924D01*
X167794708Y-94827499D01*
X167828943Y-94803967D01*
X167881565Y-94786095D01*
X167950081Y-94774599D01*
X168032000Y-94770192D01*
X168129150Y-94774179D01*
G36*
X168129150Y-94774179D02*
G01*
X168235157Y-94790494D01*
X168328969Y-94818545D01*
X168407765Y-94857452D01*
X168468719Y-94906334D01*
X168494789Y-94939195D01*
X168524297Y-94988394D01*
X168549568Y-95042252D01*
X168567218Y-95093419D01*
X168573858Y-95134544D01*
X168572298Y-95154259D01*
X168559357Y-95205592D01*
X168536194Y-95262118D01*
X168506302Y-95316035D01*
X168473173Y-95359539D01*
X168462977Y-95369887D01*
X168395892Y-95421662D01*
X168315766Y-95461554D01*
X168229556Y-95485956D01*
X168174592Y-95494068D01*
X168081139Y-95500673D01*
X167991358Y-95498586D01*
X167908869Y-95488340D01*
X167837286Y-95470470D01*
X167780228Y-95445508D01*
X167741311Y-95413988D01*
X167739936Y-95412012D01*
X167732848Y-95386786D01*
X167728609Y-95339535D01*
X167727200Y-95270071D01*
X167728060Y-95207838D01*
X167732780Y-95160456D01*
X167744470Y-95128353D01*
X167766239Y-95108800D01*
X167801198Y-95099070D01*
X167852456Y-95096433D01*
X167923123Y-95098161D01*
X167971743Y-95101173D01*
X168021939Y-95109366D01*
X168054433Y-95123419D01*
X168071892Y-95144654D01*
X168076983Y-95174394D01*
X168076877Y-95178936D01*
X168068175Y-95213730D01*
X168044165Y-95237147D01*
X168002900Y-95250347D01*
X167942431Y-95254489D01*
X167873956Y-95254489D01*
X167873956Y-95292841D01*
X167874006Y-95301976D01*
X167876227Y-95319227D01*
X167885494Y-95329521D01*
X167906875Y-95336459D01*
X167945436Y-95343641D01*
X167950910Y-95344575D01*
X168047860Y-95354478D01*
X168137852Y-95351559D01*
X168218760Y-95336829D01*
X168288459Y-95311299D01*
X168344824Y-95275978D01*
X168385729Y-95231879D01*
X168409051Y-95180012D01*
X168412663Y-95121388D01*
X168407145Y-95092494D01*
X168380461Y-95036604D01*
X168334273Y-94990945D01*
X168269291Y-94956108D01*
X168186229Y-94932690D01*
X168161555Y-94928241D01*
X168072226Y-94917742D01*
X167992419Y-94918971D01*
X167914326Y-94931906D01*
X167879183Y-94938696D01*
X167833745Y-94939713D01*
X167802430Y-94927182D01*
X167782277Y-94900395D01*
X167775893Y-94872148D01*
X167785379Y-94840924D01*
X167794708Y-94827499D01*
X167828943Y-94803967D01*
X167881565Y-94786095D01*
X167950081Y-94774599D01*
X168032000Y-94770192D01*
X168129150Y-94774179D01*
G37*
X166179803Y-94798811D02*
X166184752Y-94805495D01*
X166190596Y-94816066D01*
X166195057Y-94830153D01*
X166198321Y-94850478D01*
X166200574Y-94879765D01*
X166202002Y-94920737D01*
X166202792Y-94976117D01*
X166203129Y-95048628D01*
X166203200Y-95140994D01*
X166203171Y-95206911D01*
X166202939Y-95285228D01*
X166202319Y-95345496D01*
X166201126Y-95390393D01*
X166199179Y-95422602D01*
X166196294Y-95444800D01*
X166192288Y-95459669D01*
X166186979Y-95469889D01*
X166180183Y-95478138D01*
X166175668Y-95482795D01*
X166167438Y-95489282D01*
X166156078Y-95494194D01*
X166138810Y-95497749D01*
X166112855Y-95500167D01*
X166075436Y-95501667D01*
X166023773Y-95502467D01*
X165955089Y-95502787D01*
X165866606Y-95502845D01*
X165846931Y-95502838D01*
X165759906Y-95502572D01*
X165692254Y-95501806D01*
X165641299Y-95500392D01*
X165604367Y-95498180D01*
X165578783Y-95495022D01*
X165561871Y-95490769D01*
X165550957Y-95485271D01*
X165540464Y-95475285D01*
X165527203Y-95444168D01*
X165528386Y-95408280D01*
X165544550Y-95376733D01*
X165546739Y-95374457D01*
X165555427Y-95368189D01*
X165568769Y-95363523D01*
X165589752Y-95360227D01*
X165621363Y-95358068D01*
X165666590Y-95356814D01*
X165728420Y-95356231D01*
X165809839Y-95356089D01*
X166056445Y-95356089D01*
X166056445Y-95198045D01*
X165894006Y-95198045D01*
X165858338Y-95197964D01*
X165802568Y-95197167D01*
X165763430Y-95195162D01*
X165736976Y-95191521D01*
X165719259Y-95185812D01*
X165706329Y-95177607D01*
X165702686Y-95174423D01*
X165684278Y-95143448D01*
X165683644Y-95107112D01*
X165701183Y-95073493D01*
X165701245Y-95073424D01*
X165710916Y-95064798D01*
X165724209Y-95058742D01*
X165744917Y-95054811D01*
X165776828Y-95052556D01*
X165823734Y-95051531D01*
X165889424Y-95051289D01*
X166057571Y-95051289D01*
X166054186Y-94986378D01*
X166050800Y-94921467D01*
X165808723Y-94918414D01*
X165783707Y-94918086D01*
X165702087Y-94916606D01*
X165639768Y-94914222D01*
X165594154Y-94910227D01*
X165562652Y-94903913D01*
X165542667Y-94894574D01*
X165531604Y-94881503D01*
X165526869Y-94863992D01*
X165525867Y-94841335D01*
X165525873Y-94838970D01*
X165527027Y-94818939D01*
X165531824Y-94803146D01*
X165542632Y-94791090D01*
X165561817Y-94782267D01*
X165591745Y-94776175D01*
X165634783Y-94772311D01*
X165693299Y-94770174D01*
X165769657Y-94769260D01*
X165866226Y-94769067D01*
X166156406Y-94769067D01*
X166179803Y-94798811D01*
G36*
X166179803Y-94798811D02*
G01*
X166184752Y-94805495D01*
X166190596Y-94816066D01*
X166195057Y-94830153D01*
X166198321Y-94850478D01*
X166200574Y-94879765D01*
X166202002Y-94920737D01*
X166202792Y-94976117D01*
X166203129Y-95048628D01*
X166203200Y-95140994D01*
X166203171Y-95206911D01*
X166202939Y-95285228D01*
X166202319Y-95345496D01*
X166201126Y-95390393D01*
X166199179Y-95422602D01*
X166196294Y-95444800D01*
X166192288Y-95459669D01*
X166186979Y-95469889D01*
X166180183Y-95478138D01*
X166175668Y-95482795D01*
X166167438Y-95489282D01*
X166156078Y-95494194D01*
X166138810Y-95497749D01*
X166112855Y-95500167D01*
X166075436Y-95501667D01*
X166023773Y-95502467D01*
X165955089Y-95502787D01*
X165866606Y-95502845D01*
X165846931Y-95502838D01*
X165759906Y-95502572D01*
X165692254Y-95501806D01*
X165641299Y-95500392D01*
X165604367Y-95498180D01*
X165578783Y-95495022D01*
X165561871Y-95490769D01*
X165550957Y-95485271D01*
X165540464Y-95475285D01*
X165527203Y-95444168D01*
X165528386Y-95408280D01*
X165544550Y-95376733D01*
X165546739Y-95374457D01*
X165555427Y-95368189D01*
X165568769Y-95363523D01*
X165589752Y-95360227D01*
X165621363Y-95358068D01*
X165666590Y-95356814D01*
X165728420Y-95356231D01*
X165809839Y-95356089D01*
X166056445Y-95356089D01*
X166056445Y-95198045D01*
X165894006Y-95198045D01*
X165858338Y-95197964D01*
X165802568Y-95197167D01*
X165763430Y-95195162D01*
X165736976Y-95191521D01*
X165719259Y-95185812D01*
X165706329Y-95177607D01*
X165702686Y-95174423D01*
X165684278Y-95143448D01*
X165683644Y-95107112D01*
X165701183Y-95073493D01*
X165701245Y-95073424D01*
X165710916Y-95064798D01*
X165724209Y-95058742D01*
X165744917Y-95054811D01*
X165776828Y-95052556D01*
X165823734Y-95051531D01*
X165889424Y-95051289D01*
X166057571Y-95051289D01*
X166054186Y-94986378D01*
X166050800Y-94921467D01*
X165808723Y-94918414D01*
X165783707Y-94918086D01*
X165702087Y-94916606D01*
X165639768Y-94914222D01*
X165594154Y-94910227D01*
X165562652Y-94903913D01*
X165542667Y-94894574D01*
X165531604Y-94881503D01*
X165526869Y-94863992D01*
X165525867Y-94841335D01*
X165525873Y-94838970D01*
X165527027Y-94818939D01*
X165531824Y-94803146D01*
X165542632Y-94791090D01*
X165561817Y-94782267D01*
X165591745Y-94776175D01*
X165634783Y-94772311D01*
X165693299Y-94770174D01*
X165769657Y-94769260D01*
X165866226Y-94769067D01*
X166156406Y-94769067D01*
X166179803Y-94798811D01*
G37*
X170856734Y-94769083D02*
X170933831Y-94769275D01*
X170992777Y-94769860D01*
X171036364Y-94771051D01*
X171067383Y-94773064D01*
X171088625Y-94776112D01*
X171102882Y-94780409D01*
X171112945Y-94786172D01*
X171121606Y-94793612D01*
X171123391Y-94795293D01*
X171130635Y-94802832D01*
X171136277Y-94811850D01*
X171140517Y-94824984D01*
X171143556Y-94844872D01*
X171145594Y-94874151D01*
X171146830Y-94915458D01*
X171147465Y-94971431D01*
X171147700Y-95044707D01*
X171147734Y-95137923D01*
X171147697Y-95210713D01*
X171147448Y-95288889D01*
X171146812Y-95349103D01*
X171145615Y-95393982D01*
X171143684Y-95426152D01*
X171140846Y-95448239D01*
X171136927Y-95462870D01*
X171131755Y-95472670D01*
X171125156Y-95480267D01*
X171121822Y-95483444D01*
X171113300Y-95489554D01*
X171101298Y-95494229D01*
X171083087Y-95497659D01*
X171055940Y-95500036D01*
X171017129Y-95501552D01*
X170963924Y-95502398D01*
X170893598Y-95502765D01*
X170803422Y-95502845D01*
X170761314Y-95502833D01*
X170680167Y-95502651D01*
X170617675Y-95502098D01*
X170571109Y-95500982D01*
X170537741Y-95499113D01*
X170514844Y-95496298D01*
X170499688Y-95492346D01*
X170489546Y-95487066D01*
X170481689Y-95480267D01*
X170466963Y-95458667D01*
X170459111Y-95429467D01*
X170464610Y-95405560D01*
X170481689Y-95378667D01*
X170486668Y-95374059D01*
X170496443Y-95367772D01*
X170510559Y-95363146D01*
X170532054Y-95359930D01*
X170563968Y-95357870D01*
X170609342Y-95356712D01*
X170671213Y-95356202D01*
X170752622Y-95356089D01*
X171000978Y-95356089D01*
X171000978Y-95198045D01*
X170839801Y-95198045D01*
X170803983Y-95197899D01*
X170738359Y-95196176D01*
X170691118Y-95191741D01*
X170659383Y-95183637D01*
X170640277Y-95170906D01*
X170630923Y-95152592D01*
X170628445Y-95127738D01*
X170629242Y-95107482D01*
X170634494Y-95085656D01*
X170647288Y-95070304D01*
X170670628Y-95060309D01*
X170707517Y-95054553D01*
X170760959Y-95051919D01*
X170833958Y-95051289D01*
X171002105Y-95051289D01*
X170998719Y-94986378D01*
X170995334Y-94921467D01*
X170747617Y-94918418D01*
X170685026Y-94917539D01*
X170616565Y-94916095D01*
X170565661Y-94914164D01*
X170529408Y-94911514D01*
X170504901Y-94907910D01*
X170489235Y-94903121D01*
X170479506Y-94896913D01*
X170473491Y-94890510D01*
X170460482Y-94858828D01*
X170464043Y-94823142D01*
X170483818Y-94792084D01*
X170487069Y-94789161D01*
X170496049Y-94782810D01*
X170508153Y-94777957D01*
X170526159Y-94774403D01*
X170552847Y-94771946D01*
X170590997Y-94770385D01*
X170643386Y-94769518D01*
X170712794Y-94769146D01*
X170802001Y-94769067D01*
X170856734Y-94769083D01*
G36*
X170856734Y-94769083D02*
G01*
X170933831Y-94769275D01*
X170992777Y-94769860D01*
X171036364Y-94771051D01*
X171067383Y-94773064D01*
X171088625Y-94776112D01*
X171102882Y-94780409D01*
X171112945Y-94786172D01*
X171121606Y-94793612D01*
X171123391Y-94795293D01*
X171130635Y-94802832D01*
X171136277Y-94811850D01*
X171140517Y-94824984D01*
X171143556Y-94844872D01*
X171145594Y-94874151D01*
X171146830Y-94915458D01*
X171147465Y-94971431D01*
X171147700Y-95044707D01*
X171147734Y-95137923D01*
X171147697Y-95210713D01*
X171147448Y-95288889D01*
X171146812Y-95349103D01*
X171145615Y-95393982D01*
X171143684Y-95426152D01*
X171140846Y-95448239D01*
X171136927Y-95462870D01*
X171131755Y-95472670D01*
X171125156Y-95480267D01*
X171121822Y-95483444D01*
X171113300Y-95489554D01*
X171101298Y-95494229D01*
X171083087Y-95497659D01*
X171055940Y-95500036D01*
X171017129Y-95501552D01*
X170963924Y-95502398D01*
X170893598Y-95502765D01*
X170803422Y-95502845D01*
X170761314Y-95502833D01*
X170680167Y-95502651D01*
X170617675Y-95502098D01*
X170571109Y-95500982D01*
X170537741Y-95499113D01*
X170514844Y-95496298D01*
X170499688Y-95492346D01*
X170489546Y-95487066D01*
X170481689Y-95480267D01*
X170466963Y-95458667D01*
X170459111Y-95429467D01*
X170464610Y-95405560D01*
X170481689Y-95378667D01*
X170486668Y-95374059D01*
X170496443Y-95367772D01*
X170510559Y-95363146D01*
X170532054Y-95359930D01*
X170563968Y-95357870D01*
X170609342Y-95356712D01*
X170671213Y-95356202D01*
X170752622Y-95356089D01*
X171000978Y-95356089D01*
X171000978Y-95198045D01*
X170839801Y-95198045D01*
X170803983Y-95197899D01*
X170738359Y-95196176D01*
X170691118Y-95191741D01*
X170659383Y-95183637D01*
X170640277Y-95170906D01*
X170630923Y-95152592D01*
X170628445Y-95127738D01*
X170629242Y-95107482D01*
X170634494Y-95085656D01*
X170647288Y-95070304D01*
X170670628Y-95060309D01*
X170707517Y-95054553D01*
X170760959Y-95051919D01*
X170833958Y-95051289D01*
X171002105Y-95051289D01*
X170998719Y-94986378D01*
X170995334Y-94921467D01*
X170747617Y-94918418D01*
X170685026Y-94917539D01*
X170616565Y-94916095D01*
X170565661Y-94914164D01*
X170529408Y-94911514D01*
X170504901Y-94907910D01*
X170489235Y-94903121D01*
X170479506Y-94896913D01*
X170473491Y-94890510D01*
X170460482Y-94858828D01*
X170464043Y-94823142D01*
X170483818Y-94792084D01*
X170487069Y-94789161D01*
X170496049Y-94782810D01*
X170508153Y-94777957D01*
X170526159Y-94774403D01*
X170552847Y-94771946D01*
X170590997Y-94770385D01*
X170643386Y-94769518D01*
X170712794Y-94769146D01*
X170802001Y-94769067D01*
X170856734Y-94769083D01*
G37*
X162289702Y-94778478D02*
X162307663Y-94796989D01*
X162328263Y-94828071D01*
X162353095Y-94873756D01*
X162383750Y-94936078D01*
X162421820Y-95017071D01*
X162436454Y-95048454D01*
X162466203Y-95111638D01*
X162492297Y-95166244D01*
X162513292Y-95209290D01*
X162527739Y-95237793D01*
X162534191Y-95248770D01*
X162535550Y-95248189D01*
X162545542Y-95234242D01*
X162562833Y-95204704D01*
X162585430Y-95163087D01*
X162611338Y-95112903D01*
X162627311Y-95081414D01*
X162656261Y-95026061D01*
X162678749Y-94987044D01*
X162696965Y-94961566D01*
X162713096Y-94946831D01*
X162729330Y-94940042D01*
X162747857Y-94938400D01*
X162758360Y-94938875D01*
X162774476Y-94943082D01*
X162789790Y-94953946D01*
X162806388Y-94974219D01*
X162826357Y-95006654D01*
X162851783Y-95054004D01*
X162884752Y-95119022D01*
X162894485Y-95138277D01*
X162918943Y-95184946D01*
X162939178Y-95221109D01*
X162953311Y-95243497D01*
X162959460Y-95248845D01*
X162960827Y-95245573D01*
X162970202Y-95224664D01*
X162987062Y-95187725D01*
X163009979Y-95137874D01*
X163037520Y-95078226D01*
X163068255Y-95011898D01*
X163094970Y-94954677D01*
X163124593Y-94892688D01*
X163147664Y-94846949D01*
X163165643Y-94814908D01*
X163179990Y-94794014D01*
X163192166Y-94781718D01*
X163203632Y-94775466D01*
X163213042Y-94772574D01*
X163238147Y-94772425D01*
X163265290Y-94787768D01*
X163266590Y-94788753D01*
X163288674Y-94811388D01*
X163299723Y-94833613D01*
X163299769Y-94834253D01*
X163295228Y-94851915D01*
X163282364Y-94886481D01*
X163262605Y-94934826D01*
X163237381Y-94993825D01*
X163208119Y-95060355D01*
X163176250Y-95131291D01*
X163143201Y-95203507D01*
X163110401Y-95273880D01*
X163079280Y-95339285D01*
X163051265Y-95396597D01*
X163027786Y-95442692D01*
X163010272Y-95474446D01*
X163000151Y-95488733D01*
X162965743Y-95502102D01*
X162924046Y-95495741D01*
X162918681Y-95491044D01*
X162902852Y-95468893D01*
X162880650Y-95432132D01*
X162854233Y-95384415D01*
X162825760Y-95329393D01*
X162745986Y-95170150D01*
X162672799Y-95316742D01*
X162663103Y-95336032D01*
X162636125Y-95388380D01*
X162612096Y-95433170D01*
X162593332Y-95466154D01*
X162582146Y-95483089D01*
X162581000Y-95484332D01*
X162552879Y-95499619D01*
X162517817Y-95501302D01*
X162486776Y-95488733D01*
X162484350Y-95485884D01*
X162472090Y-95465259D01*
X162452352Y-95427708D01*
X162426448Y-95375880D01*
X162395685Y-95312423D01*
X162361375Y-95239985D01*
X162324825Y-95161216D01*
X162304585Y-95117093D01*
X162267812Y-95036365D01*
X162239355Y-94972687D01*
X162218331Y-94923752D01*
X162203854Y-94887257D01*
X162195039Y-94860895D01*
X162191004Y-94842361D01*
X162190862Y-94829352D01*
X162193730Y-94819561D01*
X162208387Y-94798678D01*
X162234990Y-94778377D01*
X162235745Y-94778035D01*
X162255335Y-94771034D01*
X162272790Y-94770504D01*
X162289702Y-94778478D01*
G36*
X162289702Y-94778478D02*
G01*
X162307663Y-94796989D01*
X162328263Y-94828071D01*
X162353095Y-94873756D01*
X162383750Y-94936078D01*
X162421820Y-95017071D01*
X162436454Y-95048454D01*
X162466203Y-95111638D01*
X162492297Y-95166244D01*
X162513292Y-95209290D01*
X162527739Y-95237793D01*
X162534191Y-95248770D01*
X162535550Y-95248189D01*
X162545542Y-95234242D01*
X162562833Y-95204704D01*
X162585430Y-95163087D01*
X162611338Y-95112903D01*
X162627311Y-95081414D01*
X162656261Y-95026061D01*
X162678749Y-94987044D01*
X162696965Y-94961566D01*
X162713096Y-94946831D01*
X162729330Y-94940042D01*
X162747857Y-94938400D01*
X162758360Y-94938875D01*
X162774476Y-94943082D01*
X162789790Y-94953946D01*
X162806388Y-94974219D01*
X162826357Y-95006654D01*
X162851783Y-95054004D01*
X162884752Y-95119022D01*
X162894485Y-95138277D01*
X162918943Y-95184946D01*
X162939178Y-95221109D01*
X162953311Y-95243497D01*
X162959460Y-95248845D01*
X162960827Y-95245573D01*
X162970202Y-95224664D01*
X162987062Y-95187725D01*
X163009979Y-95137874D01*
X163037520Y-95078226D01*
X163068255Y-95011898D01*
X163094970Y-94954677D01*
X163124593Y-94892688D01*
X163147664Y-94846949D01*
X163165643Y-94814908D01*
X163179990Y-94794014D01*
X163192166Y-94781718D01*
X163203632Y-94775466D01*
X163213042Y-94772574D01*
X163238147Y-94772425D01*
X163265290Y-94787768D01*
X163266590Y-94788753D01*
X163288674Y-94811388D01*
X163299723Y-94833613D01*
X163299769Y-94834253D01*
X163295228Y-94851915D01*
X163282364Y-94886481D01*
X163262605Y-94934826D01*
X163237381Y-94993825D01*
X163208119Y-95060355D01*
X163176250Y-95131291D01*
X163143201Y-95203507D01*
X163110401Y-95273880D01*
X163079280Y-95339285D01*
X163051265Y-95396597D01*
X163027786Y-95442692D01*
X163010272Y-95474446D01*
X163000151Y-95488733D01*
X162965743Y-95502102D01*
X162924046Y-95495741D01*
X162918681Y-95491044D01*
X162902852Y-95468893D01*
X162880650Y-95432132D01*
X162854233Y-95384415D01*
X162825760Y-95329393D01*
X162745986Y-95170150D01*
X162672799Y-95316742D01*
X162663103Y-95336032D01*
X162636125Y-95388380D01*
X162612096Y-95433170D01*
X162593332Y-95466154D01*
X162582146Y-95483089D01*
X162581000Y-95484332D01*
X162552879Y-95499619D01*
X162517817Y-95501302D01*
X162486776Y-95488733D01*
X162484350Y-95485884D01*
X162472090Y-95465259D01*
X162452352Y-95427708D01*
X162426448Y-95375880D01*
X162395685Y-95312423D01*
X162361375Y-95239985D01*
X162324825Y-95161216D01*
X162304585Y-95117093D01*
X162267812Y-95036365D01*
X162239355Y-94972687D01*
X162218331Y-94923752D01*
X162203854Y-94887257D01*
X162195039Y-94860895D01*
X162191004Y-94842361D01*
X162190862Y-94829352D01*
X162193730Y-94819561D01*
X162208387Y-94798678D01*
X162234990Y-94778377D01*
X162235745Y-94778035D01*
X162255335Y-94771034D01*
X162272790Y-94770504D01*
X162289702Y-94778478D01*
G37*
X169840853Y-94769936D02*
X169907100Y-94775366D01*
X169962400Y-94784964D01*
X170013283Y-94799825D01*
X170084595Y-94832958D01*
X170135752Y-94875640D01*
X170166575Y-94927705D01*
X170176889Y-94988983D01*
X170175952Y-95020232D01*
X170170160Y-95045029D01*
X170155353Y-95066699D01*
X170127380Y-95094049D01*
X170119402Y-95101378D01*
X170095692Y-95122281D01*
X170073298Y-95139251D01*
X170049265Y-95153205D01*
X170020637Y-95165056D01*
X169984460Y-95175720D01*
X169937780Y-95186111D01*
X169877641Y-95197146D01*
X169801090Y-95209738D01*
X169705171Y-95224804D01*
X169686808Y-95227838D01*
X169624478Y-95241458D01*
X169579260Y-95257192D01*
X169552976Y-95274263D01*
X169547447Y-95291897D01*
X169550068Y-95296168D01*
X169568000Y-95311233D01*
X169596126Y-95327867D01*
X169608926Y-95333857D01*
X169630224Y-95341050D01*
X169656610Y-95345827D01*
X169692454Y-95348646D01*
X169742128Y-95349964D01*
X169810000Y-95350237D01*
X169827785Y-95350164D01*
X169895406Y-95349053D01*
X169960345Y-95346828D01*
X170015970Y-95343762D01*
X170055651Y-95340127D01*
X170091162Y-95336059D01*
X170120415Y-95335276D01*
X170139315Y-95339876D01*
X170154429Y-95350551D01*
X170158085Y-95354144D01*
X170174427Y-95385918D01*
X170173107Y-95421572D01*
X170154150Y-95452190D01*
X170133780Y-95463796D01*
X170097796Y-95476491D01*
X170055372Y-95486541D01*
X170051922Y-95487140D01*
X170009252Y-95492356D01*
X169951866Y-95496730D01*
X169886849Y-95499818D01*
X169821289Y-95501177D01*
X169805057Y-95501218D01*
X169706744Y-95498741D01*
X169626692Y-95490735D01*
X169561513Y-95476203D01*
X169507817Y-95454149D01*
X169462216Y-95423576D01*
X169421323Y-95383486D01*
X169401202Y-95357259D01*
X169389576Y-95327712D01*
X169386667Y-95287995D01*
X169386808Y-95276026D01*
X169390681Y-95243345D01*
X169403065Y-95216819D01*
X169428230Y-95185971D01*
X169449442Y-95163831D01*
X169475838Y-95141285D01*
X169505555Y-95122917D01*
X169541785Y-95107661D01*
X169587717Y-95094449D01*
X169646544Y-95082214D01*
X169721456Y-95069889D01*
X169815645Y-95056406D01*
X169860957Y-95049396D01*
X169928911Y-95034837D01*
X169978047Y-95018337D01*
X170007614Y-95000439D01*
X170016864Y-94981685D01*
X170005048Y-94962615D01*
X169971416Y-94943771D01*
X169968370Y-94942557D01*
X169922011Y-94930479D01*
X169859361Y-94922279D01*
X169785927Y-94918119D01*
X169707217Y-94918161D01*
X169628739Y-94922569D01*
X169556000Y-94931505D01*
X169552073Y-94932154D01*
X169503257Y-94939861D01*
X169471005Y-94943473D01*
X169450008Y-94942876D01*
X169434954Y-94937954D01*
X169420534Y-94928596D01*
X169419364Y-94927725D01*
X169394847Y-94897351D01*
X169390054Y-94861850D01*
X169405860Y-94827269D01*
X169410406Y-94822813D01*
X169440020Y-94807673D01*
X169487002Y-94794550D01*
X169547306Y-94783750D01*
X169616888Y-94775581D01*
X169691703Y-94770351D01*
X169767706Y-94768367D01*
X169840853Y-94769936D01*
G36*
X169840853Y-94769936D02*
G01*
X169907100Y-94775366D01*
X169962400Y-94784964D01*
X170013283Y-94799825D01*
X170084595Y-94832958D01*
X170135752Y-94875640D01*
X170166575Y-94927705D01*
X170176889Y-94988983D01*
X170175952Y-95020232D01*
X170170160Y-95045029D01*
X170155353Y-95066699D01*
X170127380Y-95094049D01*
X170119402Y-95101378D01*
X170095692Y-95122281D01*
X170073298Y-95139251D01*
X170049265Y-95153205D01*
X170020637Y-95165056D01*
X169984460Y-95175720D01*
X169937780Y-95186111D01*
X169877641Y-95197146D01*
X169801090Y-95209738D01*
X169705171Y-95224804D01*
X169686808Y-95227838D01*
X169624478Y-95241458D01*
X169579260Y-95257192D01*
X169552976Y-95274263D01*
X169547447Y-95291897D01*
X169550068Y-95296168D01*
X169568000Y-95311233D01*
X169596126Y-95327867D01*
X169608926Y-95333857D01*
X169630224Y-95341050D01*
X169656610Y-95345827D01*
X169692454Y-95348646D01*
X169742128Y-95349964D01*
X169810000Y-95350237D01*
X169827785Y-95350164D01*
X169895406Y-95349053D01*
X169960345Y-95346828D01*
X170015970Y-95343762D01*
X170055651Y-95340127D01*
X170091162Y-95336059D01*
X170120415Y-95335276D01*
X170139315Y-95339876D01*
X170154429Y-95350551D01*
X170158085Y-95354144D01*
X170174427Y-95385918D01*
X170173107Y-95421572D01*
X170154150Y-95452190D01*
X170133780Y-95463796D01*
X170097796Y-95476491D01*
X170055372Y-95486541D01*
X170051922Y-95487140D01*
X170009252Y-95492356D01*
X169951866Y-95496730D01*
X169886849Y-95499818D01*
X169821289Y-95501177D01*
X169805057Y-95501218D01*
X169706744Y-95498741D01*
X169626692Y-95490735D01*
X169561513Y-95476203D01*
X169507817Y-95454149D01*
X169462216Y-95423576D01*
X169421323Y-95383486D01*
X169401202Y-95357259D01*
X169389576Y-95327712D01*
X169386667Y-95287995D01*
X169386808Y-95276026D01*
X169390681Y-95243345D01*
X169403065Y-95216819D01*
X169428230Y-95185971D01*
X169449442Y-95163831D01*
X169475838Y-95141285D01*
X169505555Y-95122917D01*
X169541785Y-95107661D01*
X169587717Y-95094449D01*
X169646544Y-95082214D01*
X169721456Y-95069889D01*
X169815645Y-95056406D01*
X169860957Y-95049396D01*
X169928911Y-95034837D01*
X169978047Y-95018337D01*
X170007614Y-95000439D01*
X170016864Y-94981685D01*
X170005048Y-94962615D01*
X169971416Y-94943771D01*
X169968370Y-94942557D01*
X169922011Y-94930479D01*
X169859361Y-94922279D01*
X169785927Y-94918119D01*
X169707217Y-94918161D01*
X169628739Y-94922569D01*
X169556000Y-94931505D01*
X169552073Y-94932154D01*
X169503257Y-94939861D01*
X169471005Y-94943473D01*
X169450008Y-94942876D01*
X169434954Y-94937954D01*
X169420534Y-94928596D01*
X169419364Y-94927725D01*
X169394847Y-94897351D01*
X169390054Y-94861850D01*
X169405860Y-94827269D01*
X169410406Y-94822813D01*
X169440020Y-94807673D01*
X169487002Y-94794550D01*
X169547306Y-94783750D01*
X169616888Y-94775581D01*
X169691703Y-94770351D01*
X169767706Y-94768367D01*
X169840853Y-94769936D01*
G37*
X165988711Y-90462033D02*
X166084268Y-90479523D01*
X166248558Y-90524564D01*
X166402589Y-90587656D01*
X166548509Y-90669915D01*
X166688466Y-90772457D01*
X166824608Y-90896399D01*
X166868473Y-90941661D01*
X166980758Y-91073865D01*
X167073972Y-91211832D01*
X167150719Y-91359750D01*
X167213603Y-91521803D01*
X167217420Y-91533391D01*
X167267507Y-91719392D01*
X167300899Y-91915521D01*
X167317584Y-92117568D01*
X167317551Y-92321325D01*
X167300791Y-92522581D01*
X167267292Y-92717128D01*
X167217044Y-92900756D01*
X167173190Y-93018053D01*
X167095348Y-93180951D01*
X167001828Y-93334866D01*
X166894822Y-93476671D01*
X166776519Y-93603239D01*
X166649111Y-93711441D01*
X166571606Y-93764120D01*
X166444725Y-93833750D01*
X166307243Y-93892468D01*
X166165716Y-93937587D01*
X166026702Y-93966422D01*
X166012597Y-93968106D01*
X165969153Y-93971434D01*
X165911723Y-93974275D01*
X165846122Y-93976373D01*
X165778167Y-93977468D01*
X165651378Y-93975140D01*
X165503673Y-93962136D01*
X165365779Y-93937133D01*
X165232014Y-93899318D01*
X165208562Y-93890889D01*
X165160612Y-93871408D01*
X165104140Y-93846473D01*
X165042379Y-93817722D01*
X164978563Y-93786790D01*
X164915926Y-93755315D01*
X164857703Y-93724934D01*
X164807127Y-93697283D01*
X164767433Y-93673999D01*
X164741854Y-93656718D01*
X164733625Y-93647079D01*
X164735076Y-93643984D01*
X164746250Y-93624079D01*
X164767134Y-93588420D01*
X164796265Y-93539459D01*
X164832181Y-93479646D01*
X164873420Y-93411433D01*
X164918517Y-93337271D01*
X165099785Y-93040008D01*
X165146315Y-93084539D01*
X165237723Y-93162865D01*
X165351334Y-93237439D01*
X165469122Y-93291474D01*
X165589559Y-93324290D01*
X165711117Y-93335211D01*
X165752585Y-93333868D01*
X165870080Y-93315612D01*
X165980089Y-93276617D01*
X166081430Y-93217670D01*
X166172921Y-93139557D01*
X166253380Y-93043064D01*
X166321627Y-92928978D01*
X166337908Y-92894724D01*
X166383982Y-92771240D01*
X166419106Y-92632918D01*
X166443197Y-92483561D01*
X166456173Y-92326973D01*
X166457949Y-92166956D01*
X166448443Y-92007314D01*
X166427572Y-91851850D01*
X166395252Y-91704366D01*
X166351399Y-91568667D01*
X166313982Y-91482076D01*
X166249185Y-91368688D01*
X166173772Y-91275070D01*
X166087418Y-91200959D01*
X165989795Y-91146094D01*
X165880577Y-91110212D01*
X165759439Y-91093051D01*
X165690038Y-91091880D01*
X165567168Y-91106141D01*
X165451664Y-91141241D01*
X165344953Y-91196682D01*
X165248464Y-91271964D01*
X165232720Y-91286440D01*
X165202150Y-91312962D01*
X165179809Y-91330138D01*
X165169691Y-91334787D01*
X165167706Y-91332597D01*
X165153241Y-91313721D01*
X165129400Y-91280397D01*
X165098029Y-91235380D01*
X165060974Y-91181425D01*
X165020083Y-91121285D01*
X164977202Y-91057718D01*
X164934178Y-90993476D01*
X164892857Y-90931315D01*
X164855086Y-90873991D01*
X164822712Y-90824257D01*
X164797582Y-90784868D01*
X164781542Y-90758580D01*
X164776439Y-90748147D01*
X164781050Y-90743941D01*
X164800267Y-90738933D01*
X164809838Y-90736386D01*
X164837809Y-90725249D01*
X164879448Y-90706802D01*
X164930995Y-90682725D01*
X164988690Y-90654699D01*
X164999957Y-90649154D01*
X165177687Y-90569889D01*
X165347490Y-90510385D01*
X165511430Y-90470245D01*
X165671571Y-90449071D01*
X165829977Y-90446466D01*
X165988711Y-90462033D01*
G36*
X165988711Y-90462033D02*
G01*
X166084268Y-90479523D01*
X166248558Y-90524564D01*
X166402589Y-90587656D01*
X166548509Y-90669915D01*
X166688466Y-90772457D01*
X166824608Y-90896399D01*
X166868473Y-90941661D01*
X166980758Y-91073865D01*
X167073972Y-91211832D01*
X167150719Y-91359750D01*
X167213603Y-91521803D01*
X167217420Y-91533391D01*
X167267507Y-91719392D01*
X167300899Y-91915521D01*
X167317584Y-92117568D01*
X167317551Y-92321325D01*
X167300791Y-92522581D01*
X167267292Y-92717128D01*
X167217044Y-92900756D01*
X167173190Y-93018053D01*
X167095348Y-93180951D01*
X167001828Y-93334866D01*
X166894822Y-93476671D01*
X166776519Y-93603239D01*
X166649111Y-93711441D01*
X166571606Y-93764120D01*
X166444725Y-93833750D01*
X166307243Y-93892468D01*
X166165716Y-93937587D01*
X166026702Y-93966422D01*
X166012597Y-93968106D01*
X165969153Y-93971434D01*
X165911723Y-93974275D01*
X165846122Y-93976373D01*
X165778167Y-93977468D01*
X165651378Y-93975140D01*
X165503673Y-93962136D01*
X165365779Y-93937133D01*
X165232014Y-93899318D01*
X165208562Y-93890889D01*
X165160612Y-93871408D01*
X165104140Y-93846473D01*
X165042379Y-93817722D01*
X164978563Y-93786790D01*
X164915926Y-93755315D01*
X164857703Y-93724934D01*
X164807127Y-93697283D01*
X164767433Y-93673999D01*
X164741854Y-93656718D01*
X164733625Y-93647079D01*
X164735076Y-93643984D01*
X164746250Y-93624079D01*
X164767134Y-93588420D01*
X164796265Y-93539459D01*
X164832181Y-93479646D01*
X164873420Y-93411433D01*
X164918517Y-93337271D01*
X165099785Y-93040008D01*
X165146315Y-93084539D01*
X165237723Y-93162865D01*
X165351334Y-93237439D01*
X165469122Y-93291474D01*
X165589559Y-93324290D01*
X165711117Y-93335211D01*
X165752585Y-93333868D01*
X165870080Y-93315612D01*
X165980089Y-93276617D01*
X166081430Y-93217670D01*
X166172921Y-93139557D01*
X166253380Y-93043064D01*
X166321627Y-92928978D01*
X166337908Y-92894724D01*
X166383982Y-92771240D01*
X166419106Y-92632918D01*
X166443197Y-92483561D01*
X166456173Y-92326973D01*
X166457949Y-92166956D01*
X166448443Y-92007314D01*
X166427572Y-91851850D01*
X166395252Y-91704366D01*
X166351399Y-91568667D01*
X166313982Y-91482076D01*
X166249185Y-91368688D01*
X166173772Y-91275070D01*
X166087418Y-91200959D01*
X165989795Y-91146094D01*
X165880577Y-91110212D01*
X165759439Y-91093051D01*
X165690038Y-91091880D01*
X165567168Y-91106141D01*
X165451664Y-91141241D01*
X165344953Y-91196682D01*
X165248464Y-91271964D01*
X165232720Y-91286440D01*
X165202150Y-91312962D01*
X165179809Y-91330138D01*
X165169691Y-91334787D01*
X165167706Y-91332597D01*
X165153241Y-91313721D01*
X165129400Y-91280397D01*
X165098029Y-91235380D01*
X165060974Y-91181425D01*
X165020083Y-91121285D01*
X164977202Y-91057718D01*
X164934178Y-90993476D01*
X164892857Y-90931315D01*
X164855086Y-90873991D01*
X164822712Y-90824257D01*
X164797582Y-90784868D01*
X164781542Y-90758580D01*
X164776439Y-90748147D01*
X164781050Y-90743941D01*
X164800267Y-90738933D01*
X164809838Y-90736386D01*
X164837809Y-90725249D01*
X164879448Y-90706802D01*
X164930995Y-90682725D01*
X164988690Y-90654699D01*
X164999957Y-90649154D01*
X165177687Y-90569889D01*
X165347490Y-90510385D01*
X165511430Y-90470245D01*
X165671571Y-90449071D01*
X165829977Y-90446466D01*
X165988711Y-90462033D01*
G37*
X162185994Y-92742711D02*
X162185268Y-92820158D01*
X162176689Y-92971594D01*
X162157833Y-93108283D01*
X162127837Y-93234276D01*
X162085836Y-93353625D01*
X162030969Y-93470381D01*
X161964167Y-93581179D01*
X161873363Y-93694739D01*
X161769708Y-93790211D01*
X161653887Y-93867073D01*
X161526586Y-93924797D01*
X161388489Y-93962858D01*
X161350793Y-93968666D01*
X161271752Y-93974396D01*
X161183629Y-93974583D01*
X161094236Y-93969539D01*
X161011384Y-93959578D01*
X160942887Y-93945012D01*
X160912035Y-93935364D01*
X160834730Y-93905123D01*
X160757679Y-93867617D01*
X160688200Y-93826614D01*
X160633615Y-93785879D01*
X160610916Y-93766505D01*
X160588201Y-93748662D01*
X160576779Y-93741778D01*
X160575537Y-93743424D01*
X160572728Y-93761205D01*
X160570776Y-93794370D01*
X160570045Y-93837733D01*
X160570045Y-93933689D01*
X159711896Y-93933689D01*
X159746161Y-93872974D01*
X159751355Y-93863868D01*
X159759715Y-93849249D01*
X159767288Y-93835173D01*
X159774112Y-93820540D01*
X159780227Y-93804249D01*
X159785673Y-93785198D01*
X159790487Y-93762286D01*
X159794708Y-93734413D01*
X159798377Y-93700478D01*
X159801531Y-93659379D01*
X159804211Y-93610015D01*
X159806454Y-93551286D01*
X159808299Y-93482090D01*
X159809787Y-93401326D01*
X159810955Y-93307894D01*
X159811844Y-93200692D01*
X159812491Y-93078620D01*
X159812936Y-92940576D01*
X159813218Y-92785459D01*
X159813375Y-92612168D01*
X159813448Y-92419603D01*
X159813474Y-92206662D01*
X159813485Y-92070530D01*
X160615200Y-92070530D01*
X160615200Y-93220721D01*
X160685756Y-93267089D01*
X160726417Y-93290791D01*
X160780546Y-93316639D01*
X160829689Y-93334829D01*
X160893165Y-93350551D01*
X160989331Y-93361541D01*
X161073900Y-93353365D01*
X161147219Y-93325805D01*
X161209637Y-93278642D01*
X161261502Y-93211658D01*
X161303160Y-93124633D01*
X161334962Y-93017350D01*
X161337545Y-93005009D01*
X161346000Y-92943772D01*
X161351663Y-92866692D01*
X161354576Y-92779002D01*
X161354783Y-92685934D01*
X161352330Y-92592720D01*
X161347261Y-92504594D01*
X161339619Y-92426788D01*
X161329448Y-92364533D01*
X161328167Y-92358666D01*
X161299126Y-92248121D01*
X161264610Y-92157575D01*
X161223456Y-92084953D01*
X161174499Y-92028181D01*
X161116574Y-91985184D01*
X161084620Y-91969615D01*
X161011784Y-91950722D01*
X160930443Y-91947465D01*
X160845319Y-91959389D01*
X160761133Y-91986040D01*
X160682608Y-92026962D01*
X160615200Y-92070530D01*
X159813485Y-92070530D01*
X159813493Y-91972245D01*
X159813689Y-90287378D01*
X160719017Y-90287378D01*
X160694585Y-90324067D01*
X160688318Y-90333647D01*
X160662208Y-90379981D01*
X160644469Y-90427102D01*
X160632908Y-90482251D01*
X160625331Y-90552667D01*
X160624839Y-90559650D01*
X160623062Y-90597641D01*
X160621444Y-90651576D01*
X160619999Y-90718703D01*
X160618740Y-90796271D01*
X160617680Y-90881528D01*
X160616829Y-90971724D01*
X160616203Y-91064107D01*
X160615812Y-91155925D01*
X160615670Y-91244427D01*
X160615790Y-91326862D01*
X160616183Y-91400479D01*
X160616862Y-91462526D01*
X160617841Y-91510251D01*
X160619132Y-91540904D01*
X160620747Y-91551733D01*
X160628957Y-91547333D01*
X160650647Y-91532362D01*
X160680014Y-91510448D01*
X160728879Y-91476236D01*
X160817125Y-91429714D01*
X160915916Y-91396046D01*
X161028510Y-91374231D01*
X161158164Y-91363265D01*
X161250670Y-91362219D01*
X161372011Y-91372014D01*
X161482099Y-91396174D01*
X161585389Y-91435785D01*
X161686338Y-91491932D01*
X161731503Y-91522883D01*
X161836911Y-91614115D01*
X161928538Y-91723106D01*
X162006332Y-91849726D01*
X162070241Y-91993845D01*
X162120214Y-92155332D01*
X162156198Y-92334059D01*
X162178143Y-92529895D01*
X162183900Y-92685934D01*
X162185994Y-92742711D01*
G36*
X162185994Y-92742711D02*
G01*
X162185268Y-92820158D01*
X162176689Y-92971594D01*
X162157833Y-93108283D01*
X162127837Y-93234276D01*
X162085836Y-93353625D01*
X162030969Y-93470381D01*
X161964167Y-93581179D01*
X161873363Y-93694739D01*
X161769708Y-93790211D01*
X161653887Y-93867073D01*
X161526586Y-93924797D01*
X161388489Y-93962858D01*
X161350793Y-93968666D01*
X161271752Y-93974396D01*
X161183629Y-93974583D01*
X161094236Y-93969539D01*
X161011384Y-93959578D01*
X160942887Y-93945012D01*
X160912035Y-93935364D01*
X160834730Y-93905123D01*
X160757679Y-93867617D01*
X160688200Y-93826614D01*
X160633615Y-93785879D01*
X160610916Y-93766505D01*
X160588201Y-93748662D01*
X160576779Y-93741778D01*
X160575537Y-93743424D01*
X160572728Y-93761205D01*
X160570776Y-93794370D01*
X160570045Y-93837733D01*
X160570045Y-93933689D01*
X159711896Y-93933689D01*
X159746161Y-93872974D01*
X159751355Y-93863868D01*
X159759715Y-93849249D01*
X159767288Y-93835173D01*
X159774112Y-93820540D01*
X159780227Y-93804249D01*
X159785673Y-93785198D01*
X159790487Y-93762286D01*
X159794708Y-93734413D01*
X159798377Y-93700478D01*
X159801531Y-93659379D01*
X159804211Y-93610015D01*
X159806454Y-93551286D01*
X159808299Y-93482090D01*
X159809787Y-93401326D01*
X159810955Y-93307894D01*
X159811844Y-93200692D01*
X159812491Y-93078620D01*
X159812936Y-92940576D01*
X159813218Y-92785459D01*
X159813375Y-92612168D01*
X159813448Y-92419603D01*
X159813474Y-92206662D01*
X159813485Y-92070530D01*
X160615200Y-92070530D01*
X160615200Y-93220721D01*
X160685756Y-93267089D01*
X160726417Y-93290791D01*
X160780546Y-93316639D01*
X160829689Y-93334829D01*
X160893165Y-93350551D01*
X160989331Y-93361541D01*
X161073900Y-93353365D01*
X161147219Y-93325805D01*
X161209637Y-93278642D01*
X161261502Y-93211658D01*
X161303160Y-93124633D01*
X161334962Y-93017350D01*
X161337545Y-93005009D01*
X161346000Y-92943772D01*
X161351663Y-92866692D01*
X161354576Y-92779002D01*
X161354783Y-92685934D01*
X161352330Y-92592720D01*
X161347261Y-92504594D01*
X161339619Y-92426788D01*
X161329448Y-92364533D01*
X161328167Y-92358666D01*
X161299126Y-92248121D01*
X161264610Y-92157575D01*
X161223456Y-92084953D01*
X161174499Y-92028181D01*
X161116574Y-91985184D01*
X161084620Y-91969615D01*
X161011784Y-91950722D01*
X160930443Y-91947465D01*
X160845319Y-91959389D01*
X160761133Y-91986040D01*
X160682608Y-92026962D01*
X160615200Y-92070530D01*
X159813485Y-92070530D01*
X159813493Y-91972245D01*
X159813689Y-90287378D01*
X160719017Y-90287378D01*
X160694585Y-90324067D01*
X160688318Y-90333647D01*
X160662208Y-90379981D01*
X160644469Y-90427102D01*
X160632908Y-90482251D01*
X160625331Y-90552667D01*
X160624839Y-90559650D01*
X160623062Y-90597641D01*
X160621444Y-90651576D01*
X160619999Y-90718703D01*
X160618740Y-90796271D01*
X160617680Y-90881528D01*
X160616829Y-90971724D01*
X160616203Y-91064107D01*
X160615812Y-91155925D01*
X160615670Y-91244427D01*
X160615790Y-91326862D01*
X160616183Y-91400479D01*
X160616862Y-91462526D01*
X160617841Y-91510251D01*
X160619132Y-91540904D01*
X160620747Y-91551733D01*
X160628957Y-91547333D01*
X160650647Y-91532362D01*
X160680014Y-91510448D01*
X160728879Y-91476236D01*
X160817125Y-91429714D01*
X160915916Y-91396046D01*
X161028510Y-91374231D01*
X161158164Y-91363265D01*
X161250670Y-91362219D01*
X161372011Y-91372014D01*
X161482099Y-91396174D01*
X161585389Y-91435785D01*
X161686338Y-91491932D01*
X161731503Y-91522883D01*
X161836911Y-91614115D01*
X161928538Y-91723106D01*
X162006332Y-91849726D01*
X162070241Y-91993845D01*
X162120214Y-92155332D01*
X162156198Y-92334059D01*
X162178143Y-92529895D01*
X162183900Y-92685934D01*
X162185994Y-92742711D01*
G37*
X164727755Y-93143467D02*
X164727261Y-93177363D01*
X164723632Y-93252202D01*
X164716022Y-93314401D01*
X164703688Y-93370984D01*
X164659313Y-93497076D01*
X164596400Y-93611679D01*
X164516238Y-93712568D01*
X164419740Y-93798924D01*
X164307822Y-93869932D01*
X164181397Y-93924776D01*
X164041378Y-93962638D01*
X164005149Y-93968351D01*
X163926155Y-93974313D01*
X163837841Y-93974646D01*
X163748075Y-93969659D01*
X163664722Y-93959666D01*
X163595651Y-93944978D01*
X163509187Y-93914749D01*
X163399286Y-93860057D01*
X163301956Y-93792543D01*
X163239867Y-93741556D01*
X163236605Y-93837622D01*
X163233343Y-93933689D01*
X162810450Y-93933689D01*
X162799543Y-93933686D01*
X162705056Y-93933380D01*
X162618331Y-93932616D01*
X162541837Y-93931451D01*
X162478043Y-93929942D01*
X162429418Y-93928147D01*
X162398433Y-93926121D01*
X162387556Y-93923922D01*
X162387578Y-93923463D01*
X162394614Y-93907910D01*
X162410434Y-93885071D01*
X162414734Y-93879638D01*
X162425777Y-93865606D01*
X162435311Y-93852186D01*
X162443461Y-93837722D01*
X162450352Y-93820556D01*
X162456111Y-93799034D01*
X162460862Y-93771498D01*
X162464731Y-93736292D01*
X162467844Y-93691760D01*
X162470325Y-93636246D01*
X162472300Y-93568093D01*
X162473894Y-93485645D01*
X162475234Y-93387246D01*
X162476444Y-93271239D01*
X162477649Y-93135968D01*
X162478595Y-93024586D01*
X163279378Y-93024586D01*
X163279378Y-93220462D01*
X163324048Y-93276973D01*
X163336785Y-93292212D01*
X163383604Y-93334844D01*
X163444255Y-93370672D01*
X163454897Y-93375850D01*
X163493676Y-93392745D01*
X163528692Y-93402909D01*
X163568722Y-93408325D01*
X163622541Y-93410978D01*
X163640648Y-93411383D01*
X163716011Y-93408540D01*
X163776743Y-93396620D01*
X163828452Y-93374037D01*
X163876746Y-93339211D01*
X163881803Y-93334798D01*
X163930272Y-93279160D01*
X163958459Y-93215333D01*
X163967752Y-93140282D01*
X163960520Y-93068693D01*
X163935796Y-93005645D01*
X163891249Y-92947758D01*
X163836319Y-92900808D01*
X163763894Y-92860961D01*
X163677340Y-92833263D01*
X163574670Y-92817096D01*
X163453894Y-92811842D01*
X163445007Y-92811857D01*
X163389660Y-92812655D01*
X163342736Y-92814488D01*
X163308953Y-92817111D01*
X163293028Y-92820274D01*
X163288943Y-92826741D01*
X163284572Y-92848875D01*
X163281604Y-92887988D01*
X163279914Y-92945939D01*
X163279378Y-93024586D01*
X162478595Y-93024586D01*
X162478975Y-92979778D01*
X162480228Y-92837012D01*
X162481651Y-92691942D01*
X162483176Y-92566027D01*
X162484933Y-92457436D01*
X162487051Y-92364334D01*
X162489660Y-92284891D01*
X162492890Y-92217273D01*
X162496869Y-92159649D01*
X162501728Y-92110185D01*
X162507597Y-92067050D01*
X162514604Y-92028410D01*
X162522880Y-91992434D01*
X162532554Y-91957289D01*
X162543756Y-91921142D01*
X162556616Y-91882161D01*
X162572090Y-91839091D01*
X162614994Y-91746871D01*
X162668735Y-91667099D01*
X162737576Y-91592965D01*
X162815185Y-91529405D01*
X162919761Y-91467725D01*
X163039244Y-91420202D01*
X163174508Y-91386567D01*
X163326426Y-91366552D01*
X163495872Y-91359889D01*
X163553890Y-91360287D01*
X163619398Y-91362335D01*
X163680693Y-91366704D01*
X163742097Y-91374035D01*
X163807932Y-91384969D01*
X163882520Y-91400147D01*
X163970184Y-91420209D01*
X164075245Y-91445797D01*
X164103806Y-91452820D01*
X164179054Y-91470776D01*
X164249388Y-91486820D01*
X164310567Y-91500028D01*
X164358354Y-91509474D01*
X164388511Y-91514231D01*
X164416783Y-91517910D01*
X164443060Y-91523187D01*
X164453059Y-91527942D01*
X164449952Y-91536781D01*
X164439194Y-91564072D01*
X164421864Y-91606906D01*
X164399126Y-91662425D01*
X164372147Y-91727772D01*
X164342090Y-91800089D01*
X164335493Y-91815879D01*
X164296907Y-91906484D01*
X164265768Y-91976217D01*
X164241917Y-92025405D01*
X164225198Y-92054374D01*
X164215454Y-92063452D01*
X164207766Y-92061405D01*
X164181415Y-92051760D01*
X164142982Y-92036190D01*
X164097822Y-92016815D01*
X164003293Y-91978814D01*
X163866480Y-91937780D01*
X163725289Y-91912612D01*
X163687314Y-91908611D01*
X163584059Y-91906447D01*
X163496952Y-91919622D01*
X163425129Y-91948756D01*
X163367731Y-91994466D01*
X163323896Y-92057372D01*
X163292762Y-92138092D01*
X163273470Y-92237245D01*
X163266050Y-92296224D01*
X163427936Y-92289445D01*
X163554495Y-92287813D01*
X163705951Y-92294194D01*
X163854396Y-92308777D01*
X163990578Y-92330882D01*
X164055245Y-92345821D01*
X164187490Y-92388741D01*
X164309762Y-92445340D01*
X164419685Y-92514017D01*
X164514883Y-92593170D01*
X164592980Y-92681196D01*
X164651599Y-92776493D01*
X164675595Y-92828864D01*
X164701232Y-92899590D01*
X164717478Y-92970812D01*
X164725822Y-93049712D01*
X164727690Y-93140282D01*
X164727755Y-93143467D01*
G36*
X164727755Y-93143467D02*
G01*
X164727261Y-93177363D01*
X164723632Y-93252202D01*
X164716022Y-93314401D01*
X164703688Y-93370984D01*
X164659313Y-93497076D01*
X164596400Y-93611679D01*
X164516238Y-93712568D01*
X164419740Y-93798924D01*
X164307822Y-93869932D01*
X164181397Y-93924776D01*
X164041378Y-93962638D01*
X164005149Y-93968351D01*
X163926155Y-93974313D01*
X163837841Y-93974646D01*
X163748075Y-93969659D01*
X163664722Y-93959666D01*
X163595651Y-93944978D01*
X163509187Y-93914749D01*
X163399286Y-93860057D01*
X163301956Y-93792543D01*
X163239867Y-93741556D01*
X163236605Y-93837622D01*
X163233343Y-93933689D01*
X162810450Y-93933689D01*
X162799543Y-93933686D01*
X162705056Y-93933380D01*
X162618331Y-93932616D01*
X162541837Y-93931451D01*
X162478043Y-93929942D01*
X162429418Y-93928147D01*
X162398433Y-93926121D01*
X162387556Y-93923922D01*
X162387578Y-93923463D01*
X162394614Y-93907910D01*
X162410434Y-93885071D01*
X162414734Y-93879638D01*
X162425777Y-93865606D01*
X162435311Y-93852186D01*
X162443461Y-93837722D01*
X162450352Y-93820556D01*
X162456111Y-93799034D01*
X162460862Y-93771498D01*
X162464731Y-93736292D01*
X162467844Y-93691760D01*
X162470325Y-93636246D01*
X162472300Y-93568093D01*
X162473894Y-93485645D01*
X162475234Y-93387246D01*
X162476444Y-93271239D01*
X162477649Y-93135968D01*
X162478595Y-93024586D01*
X163279378Y-93024586D01*
X163279378Y-93220462D01*
X163324048Y-93276973D01*
X163336785Y-93292212D01*
X163383604Y-93334844D01*
X163444255Y-93370672D01*
X163454897Y-93375850D01*
X163493676Y-93392745D01*
X163528692Y-93402909D01*
X163568722Y-93408325D01*
X163622541Y-93410978D01*
X163640648Y-93411383D01*
X163716011Y-93408540D01*
X163776743Y-93396620D01*
X163828452Y-93374037D01*
X163876746Y-93339211D01*
X163881803Y-93334798D01*
X163930272Y-93279160D01*
X163958459Y-93215333D01*
X163967752Y-93140282D01*
X163960520Y-93068693D01*
X163935796Y-93005645D01*
X163891249Y-92947758D01*
X163836319Y-92900808D01*
X163763894Y-92860961D01*
X163677340Y-92833263D01*
X163574670Y-92817096D01*
X163453894Y-92811842D01*
X163445007Y-92811857D01*
X163389660Y-92812655D01*
X163342736Y-92814488D01*
X163308953Y-92817111D01*
X163293028Y-92820274D01*
X163288943Y-92826741D01*
X163284572Y-92848875D01*
X163281604Y-92887988D01*
X163279914Y-92945939D01*
X163279378Y-93024586D01*
X162478595Y-93024586D01*
X162478975Y-92979778D01*
X162480228Y-92837012D01*
X162481651Y-92691942D01*
X162483176Y-92566027D01*
X162484933Y-92457436D01*
X162487051Y-92364334D01*
X162489660Y-92284891D01*
X162492890Y-92217273D01*
X162496869Y-92159649D01*
X162501728Y-92110185D01*
X162507597Y-92067050D01*
X162514604Y-92028410D01*
X162522880Y-91992434D01*
X162532554Y-91957289D01*
X162543756Y-91921142D01*
X162556616Y-91882161D01*
X162572090Y-91839091D01*
X162614994Y-91746871D01*
X162668735Y-91667099D01*
X162737576Y-91592965D01*
X162815185Y-91529405D01*
X162919761Y-91467725D01*
X163039244Y-91420202D01*
X163174508Y-91386567D01*
X163326426Y-91366552D01*
X163495872Y-91359889D01*
X163553890Y-91360287D01*
X163619398Y-91362335D01*
X163680693Y-91366704D01*
X163742097Y-91374035D01*
X163807932Y-91384969D01*
X163882520Y-91400147D01*
X163970184Y-91420209D01*
X164075245Y-91445797D01*
X164103806Y-91452820D01*
X164179054Y-91470776D01*
X164249388Y-91486820D01*
X164310567Y-91500028D01*
X164358354Y-91509474D01*
X164388511Y-91514231D01*
X164416783Y-91517910D01*
X164443060Y-91523187D01*
X164453059Y-91527942D01*
X164449952Y-91536781D01*
X164439194Y-91564072D01*
X164421864Y-91606906D01*
X164399126Y-91662425D01*
X164372147Y-91727772D01*
X164342090Y-91800089D01*
X164335493Y-91815879D01*
X164296907Y-91906484D01*
X164265768Y-91976217D01*
X164241917Y-92025405D01*
X164225198Y-92054374D01*
X164215454Y-92063452D01*
X164207766Y-92061405D01*
X164181415Y-92051760D01*
X164142982Y-92036190D01*
X164097822Y-92016815D01*
X164003293Y-91978814D01*
X163866480Y-91937780D01*
X163725289Y-91912612D01*
X163687314Y-91908611D01*
X163584059Y-91906447D01*
X163496952Y-91919622D01*
X163425129Y-91948756D01*
X163367731Y-91994466D01*
X163323896Y-92057372D01*
X163292762Y-92138092D01*
X163273470Y-92237245D01*
X163266050Y-92296224D01*
X163427936Y-92289445D01*
X163554495Y-92287813D01*
X163705951Y-92294194D01*
X163854396Y-92308777D01*
X163990578Y-92330882D01*
X164055245Y-92345821D01*
X164187490Y-92388741D01*
X164309762Y-92445340D01*
X164419685Y-92514017D01*
X164514883Y-92593170D01*
X164592980Y-92681196D01*
X164651599Y-92776493D01*
X164675595Y-92828864D01*
X164701232Y-92899590D01*
X164717478Y-92970812D01*
X164725822Y-93049712D01*
X164727690Y-93140282D01*
X164727755Y-93143467D01*
G37*
X172275614Y-90611792D02*
X172276059Y-90743011D01*
X172276362Y-90890216D01*
X172276548Y-91054349D01*
X172276642Y-91236352D01*
X172276671Y-91437165D01*
X172276661Y-91657732D01*
X172276636Y-91898992D01*
X172276622Y-92161889D01*
X172276622Y-92204040D01*
X172276646Y-92464668D01*
X172276685Y-92703796D01*
X172276708Y-92922360D01*
X172276687Y-93121295D01*
X172276593Y-93301535D01*
X172276395Y-93464015D01*
X172276063Y-93609670D01*
X172275569Y-93739434D01*
X172274883Y-93854243D01*
X172273976Y-93955030D01*
X172272817Y-94042730D01*
X172271378Y-94118279D01*
X172269629Y-94182611D01*
X172267540Y-94236661D01*
X172265083Y-94281363D01*
X172262227Y-94317652D01*
X172258943Y-94346463D01*
X172255202Y-94368731D01*
X172250974Y-94385390D01*
X172246229Y-94397375D01*
X172240939Y-94405621D01*
X172235073Y-94411062D01*
X172228602Y-94414634D01*
X172221497Y-94417270D01*
X172213728Y-94419906D01*
X172205266Y-94423477D01*
X172200908Y-94425145D01*
X172192395Y-94427111D01*
X172179694Y-94428911D01*
X172161885Y-94430555D01*
X172138049Y-94432047D01*
X172107266Y-94433397D01*
X172068617Y-94434611D01*
X172021182Y-94435697D01*
X171964043Y-94436661D01*
X171896279Y-94437511D01*
X171816971Y-94438253D01*
X171725199Y-94438897D01*
X171620044Y-94439447D01*
X171500587Y-94439913D01*
X171365908Y-94440300D01*
X171215088Y-94440616D01*
X171047206Y-94440869D01*
X170861345Y-94441066D01*
X170656583Y-94441213D01*
X170432002Y-94441318D01*
X170186682Y-94441389D01*
X169919704Y-94441432D01*
X169881321Y-94441437D01*
X169615922Y-94441480D01*
X169372050Y-94441525D01*
X169148783Y-94441548D01*
X168945196Y-94441524D01*
X168760367Y-94441430D01*
X168593373Y-94441243D01*
X168443290Y-94440939D01*
X168309196Y-94440494D01*
X168190166Y-94439885D01*
X168085279Y-94439089D01*
X167993610Y-94438080D01*
X167914237Y-94436837D01*
X167846237Y-94435335D01*
X167788686Y-94433551D01*
X167740662Y-94431461D01*
X167701240Y-94429042D01*
X167669499Y-94426270D01*
X167644514Y-94423121D01*
X167625364Y-94419572D01*
X167611123Y-94415598D01*
X167600871Y-94411178D01*
X167593682Y-94406286D01*
X167588635Y-94400900D01*
X167584805Y-94394996D01*
X167581271Y-94388549D01*
X167577108Y-94381537D01*
X167576025Y-94379687D01*
X167573813Y-94374180D01*
X167571786Y-94365868D01*
X167569938Y-94353809D01*
X167568261Y-94337063D01*
X167566745Y-94314687D01*
X167565383Y-94285740D01*
X167564167Y-94249280D01*
X167563089Y-94204367D01*
X167562140Y-94150057D01*
X167561312Y-94085410D01*
X167560597Y-94009484D01*
X167559987Y-93921338D01*
X167559942Y-93912493D01*
X167851378Y-93912493D01*
X167855260Y-93913765D01*
X167878520Y-93915791D01*
X167920874Y-93917626D01*
X167980132Y-93919227D01*
X168054107Y-93920549D01*
X168140610Y-93921548D01*
X168237452Y-93922180D01*
X168342445Y-93922400D01*
X169040651Y-93922400D01*
X170195090Y-93922400D01*
X170194456Y-93846200D01*
X170195574Y-93804160D01*
X170201304Y-93768334D01*
X170213890Y-93730772D01*
X170235568Y-93682577D01*
X170238789Y-93675897D01*
X170264188Y-93626359D01*
X170290996Y-93578369D01*
X170313917Y-93541466D01*
X170318485Y-93534834D01*
X170340516Y-93503593D01*
X170372693Y-93458654D01*
X170413457Y-93402147D01*
X170461245Y-93336204D01*
X170514498Y-93262957D01*
X170571655Y-93184536D01*
X170631155Y-93103072D01*
X170691437Y-93020698D01*
X170750940Y-92939544D01*
X170808105Y-92861742D01*
X170861370Y-92789423D01*
X170909174Y-92724718D01*
X170949957Y-92669759D01*
X170982158Y-92626676D01*
X171004216Y-92597602D01*
X171014571Y-92584667D01*
X171019044Y-92580351D01*
X171023236Y-92578312D01*
X171026643Y-92580926D01*
X171029325Y-92589986D01*
X171031341Y-92607285D01*
X171032748Y-92634614D01*
X171033605Y-92673765D01*
X171033970Y-92726533D01*
X171033903Y-92794707D01*
X171033460Y-92880082D01*
X171032702Y-92984449D01*
X171031685Y-93109600D01*
X171031308Y-93154300D01*
X171030169Y-93275395D01*
X171028972Y-93376688D01*
X171027636Y-93460262D01*
X171026077Y-93528204D01*
X171024215Y-93582599D01*
X171021966Y-93625532D01*
X171019248Y-93659089D01*
X171015979Y-93685355D01*
X171012078Y-93706416D01*
X171007461Y-93724357D01*
X170999192Y-93750770D01*
X170975583Y-93812772D01*
X170949685Y-93865573D01*
X170924535Y-93902645D01*
X170923339Y-93904075D01*
X170921168Y-93908424D01*
X170923328Y-93912026D01*
X170931644Y-93914951D01*
X170947940Y-93917269D01*
X170974041Y-93919051D01*
X171011771Y-93920367D01*
X171062956Y-93921286D01*
X171129420Y-93921878D01*
X171212987Y-93922215D01*
X171315483Y-93922365D01*
X171438732Y-93922400D01*
X171970296Y-93922400D01*
X171931523Y-93864783D01*
X171925432Y-93855893D01*
X171914976Y-93841069D01*
X171905579Y-93827422D01*
X171897183Y-93813765D01*
X171889733Y-93798911D01*
X171883173Y-93781670D01*
X171877446Y-93760855D01*
X171872495Y-93735280D01*
X171868266Y-93703755D01*
X171864701Y-93665093D01*
X171861744Y-93618107D01*
X171859340Y-93561608D01*
X171857431Y-93494409D01*
X171855962Y-93415322D01*
X171854876Y-93323160D01*
X171854118Y-93216734D01*
X171853630Y-93094857D01*
X171853358Y-92956341D01*
X171853243Y-92799999D01*
X171853231Y-92624642D01*
X171853265Y-92429082D01*
X171853289Y-92212133D01*
X171853280Y-92089513D01*
X171853243Y-91884447D01*
X171853227Y-91700116D01*
X171853288Y-91535334D01*
X171853484Y-91388916D01*
X171853870Y-91259674D01*
X171854505Y-91146422D01*
X171855444Y-91047975D01*
X171856745Y-90963144D01*
X171858464Y-90890744D01*
X171860659Y-90829589D01*
X171863385Y-90778492D01*
X171866701Y-90736267D01*
X171870662Y-90701727D01*
X171875325Y-90673686D01*
X171880747Y-90650958D01*
X171886986Y-90632356D01*
X171894097Y-90616693D01*
X171902138Y-90602784D01*
X171911166Y-90589441D01*
X171921236Y-90575479D01*
X171932407Y-90559711D01*
X171972197Y-90501867D01*
X170912314Y-90501867D01*
X170950311Y-90564966D01*
X170964993Y-90590005D01*
X170979531Y-90617586D01*
X170991627Y-90645700D01*
X171001532Y-90676551D01*
X171009494Y-90712344D01*
X171015761Y-90755283D01*
X171020582Y-90807574D01*
X171024206Y-90871419D01*
X171026881Y-90949025D01*
X171028857Y-91042594D01*
X171030382Y-91154333D01*
X171031704Y-91286445D01*
X171032613Y-91406434D01*
X171033020Y-91523063D01*
X171032767Y-91618531D01*
X171031857Y-91692556D01*
X171030293Y-91744855D01*
X171028079Y-91775149D01*
X171025220Y-91783156D01*
X171022161Y-91779858D01*
X171004006Y-91758408D01*
X170974275Y-91721889D01*
X170934639Y-91672442D01*
X170886771Y-91612207D01*
X170832343Y-91543327D01*
X170773027Y-91467943D01*
X170710495Y-91388196D01*
X170646421Y-91306228D01*
X170582475Y-91224180D01*
X170520331Y-91144194D01*
X170461661Y-91068411D01*
X170408137Y-90998973D01*
X170361430Y-90938021D01*
X170323214Y-90887696D01*
X170295161Y-90850140D01*
X170278943Y-90827495D01*
X170233635Y-90755212D01*
X170193661Y-90675463D01*
X170172130Y-90607188D01*
X170168827Y-90549844D01*
X170174116Y-90501867D01*
X169042356Y-90502117D01*
X169081867Y-90532722D01*
X169091248Y-90540089D01*
X169154183Y-90594438D01*
X169222997Y-90662259D01*
X169299596Y-90745516D01*
X169385888Y-90846178D01*
X169403052Y-90866847D01*
X169443833Y-90916409D01*
X169493588Y-90977326D01*
X169550955Y-91047898D01*
X169614569Y-91126424D01*
X169683069Y-91211204D01*
X169755090Y-91300537D01*
X169829270Y-91392722D01*
X169844517Y-91411702D01*
X169904246Y-91486060D01*
X169978653Y-91578848D01*
X170051131Y-91669388D01*
X170120314Y-91755978D01*
X170184841Y-91836918D01*
X170243347Y-91910506D01*
X170294470Y-91975044D01*
X170336847Y-92028829D01*
X170369115Y-92070162D01*
X170389910Y-92097342D01*
X170397869Y-92108668D01*
X170396111Y-92112771D01*
X170383230Y-92133334D01*
X170358885Y-92169561D01*
X170324247Y-92219824D01*
X170280486Y-92282492D01*
X170228775Y-92355936D01*
X170170284Y-92438527D01*
X170106184Y-92528636D01*
X170037646Y-92624631D01*
X169965843Y-92724885D01*
X169891944Y-92827768D01*
X169817121Y-92931650D01*
X169742545Y-93034901D01*
X169669387Y-93135892D01*
X169598819Y-93232994D01*
X169532011Y-93324577D01*
X169470135Y-93409011D01*
X169414361Y-93484667D01*
X169365862Y-93549916D01*
X169325807Y-93603128D01*
X169295369Y-93642673D01*
X169274944Y-93668026D01*
X169228899Y-93722295D01*
X169178612Y-93778775D01*
X169131815Y-93828669D01*
X169040651Y-93922400D01*
X168342445Y-93922400D01*
X168411356Y-93922349D01*
X168509607Y-93922091D01*
X168599030Y-93921637D01*
X168677333Y-93921010D01*
X168742223Y-93920235D01*
X168791411Y-93919335D01*
X168822604Y-93918334D01*
X168833511Y-93917257D01*
X168832322Y-93914037D01*
X168822176Y-93896452D01*
X168805040Y-93870158D01*
X168796540Y-93857691D01*
X168787329Y-93843622D01*
X168779233Y-93829351D01*
X168772185Y-93813479D01*
X168766117Y-93794609D01*
X168760961Y-93771341D01*
X168756651Y-93742278D01*
X168753119Y-93706021D01*
X168750297Y-93661170D01*
X168748118Y-93606328D01*
X168746514Y-93540097D01*
X168745419Y-93461077D01*
X168744765Y-93367871D01*
X168744484Y-93259079D01*
X168744509Y-93133303D01*
X168744772Y-92989145D01*
X168745206Y-92825207D01*
X168745745Y-92640089D01*
X168746279Y-92461232D01*
X168746805Y-92302374D01*
X168747350Y-92163316D01*
X168747945Y-92042665D01*
X168748619Y-91939028D01*
X168749403Y-91851011D01*
X168750326Y-91777223D01*
X168751419Y-91716269D01*
X168752712Y-91666757D01*
X168754235Y-91627293D01*
X168756019Y-91596484D01*
X168758092Y-91572938D01*
X168760486Y-91555260D01*
X168763230Y-91542059D01*
X168766356Y-91531940D01*
X168769892Y-91523511D01*
X168773791Y-91515375D01*
X168793438Y-91478544D01*
X168812225Y-91448391D01*
X168813272Y-91446908D01*
X168827602Y-91424659D01*
X168833511Y-91411702D01*
X168832504Y-91411249D01*
X168815305Y-91409803D01*
X168778656Y-91408480D01*
X168724962Y-91407316D01*
X168656630Y-91406347D01*
X168576064Y-91405611D01*
X168485670Y-91405142D01*
X168387853Y-91404978D01*
X167942195Y-91404978D01*
X167939120Y-92581845D01*
X167936045Y-93758711D01*
X167909407Y-93817622D01*
X167897485Y-93842183D01*
X167880246Y-93872434D01*
X167867074Y-93889560D01*
X167859076Y-93897591D01*
X167851378Y-93912493D01*
X167559942Y-93912493D01*
X167559474Y-93820029D01*
X167559050Y-93704617D01*
X167558706Y-93574160D01*
X167558434Y-93427716D01*
X167558227Y-93264344D01*
X167558076Y-93083101D01*
X167557972Y-92883048D01*
X167557908Y-92663241D01*
X167557876Y-92422739D01*
X167557867Y-92160602D01*
X167557867Y-89969031D01*
X167596249Y-89930649D01*
X167623355Y-89906911D01*
X167650253Y-89895111D01*
X167686560Y-89892267D01*
X167738489Y-89892267D01*
X167738489Y-89980206D01*
X167740427Y-90030102D01*
X167759199Y-90140523D01*
X167796217Y-90241987D01*
X167849369Y-90333152D01*
X167916546Y-90412673D01*
X167995638Y-90479205D01*
X168084534Y-90531406D01*
X168181125Y-90567930D01*
X168283300Y-90587434D01*
X168388950Y-90588573D01*
X168495964Y-90570005D01*
X168602232Y-90530384D01*
X168699219Y-90472516D01*
X168784293Y-90397684D01*
X168853015Y-90309615D01*
X168903918Y-90210616D01*
X168935535Y-90102993D01*
X168946400Y-89989054D01*
X168946400Y-89892267D01*
X170566753Y-89892267D01*
X170777897Y-89892280D01*
X170982020Y-89892330D01*
X171165686Y-89892430D01*
X171329991Y-89892592D01*
X171476029Y-89892829D01*
X171604894Y-89893153D01*
X171717683Y-89893575D01*
X171815488Y-89894109D01*
X171899404Y-89894767D01*
X171970527Y-89895561D01*
X172029950Y-89896504D01*
X172078768Y-89897608D01*
X172118077Y-89898884D01*
X172148969Y-89900347D01*
X172172541Y-89902007D01*
X172189886Y-89903878D01*
X172202099Y-89905972D01*
X172210275Y-89908300D01*
X172215508Y-89910876D01*
X172221504Y-89914445D01*
X172228279Y-89917978D01*
X172234478Y-89921488D01*
X172240126Y-89925918D01*
X172245247Y-89932208D01*
X172249869Y-89941301D01*
X172254015Y-89954139D01*
X172257713Y-89971662D01*
X172260987Y-89994813D01*
X172263863Y-90024534D01*
X172266367Y-90061765D01*
X172268524Y-90107449D01*
X172270360Y-90162527D01*
X172271900Y-90227941D01*
X172273170Y-90304633D01*
X172274195Y-90393544D01*
X172275001Y-90495617D01*
X172275034Y-90501867D01*
X172275614Y-90611792D01*
G36*
X172275614Y-90611792D02*
G01*
X172276059Y-90743011D01*
X172276362Y-90890216D01*
X172276548Y-91054349D01*
X172276642Y-91236352D01*
X172276671Y-91437165D01*
X172276661Y-91657732D01*
X172276636Y-91898992D01*
X172276622Y-92161889D01*
X172276622Y-92204040D01*
X172276646Y-92464668D01*
X172276685Y-92703796D01*
X172276708Y-92922360D01*
X172276687Y-93121295D01*
X172276593Y-93301535D01*
X172276395Y-93464015D01*
X172276063Y-93609670D01*
X172275569Y-93739434D01*
X172274883Y-93854243D01*
X172273976Y-93955030D01*
X172272817Y-94042730D01*
X172271378Y-94118279D01*
X172269629Y-94182611D01*
X172267540Y-94236661D01*
X172265083Y-94281363D01*
X172262227Y-94317652D01*
X172258943Y-94346463D01*
X172255202Y-94368731D01*
X172250974Y-94385390D01*
X172246229Y-94397375D01*
X172240939Y-94405621D01*
X172235073Y-94411062D01*
X172228602Y-94414634D01*
X172221497Y-94417270D01*
X172213728Y-94419906D01*
X172205266Y-94423477D01*
X172200908Y-94425145D01*
X172192395Y-94427111D01*
X172179694Y-94428911D01*
X172161885Y-94430555D01*
X172138049Y-94432047D01*
X172107266Y-94433397D01*
X172068617Y-94434611D01*
X172021182Y-94435697D01*
X171964043Y-94436661D01*
X171896279Y-94437511D01*
X171816971Y-94438253D01*
X171725199Y-94438897D01*
X171620044Y-94439447D01*
X171500587Y-94439913D01*
X171365908Y-94440300D01*
X171215088Y-94440616D01*
X171047206Y-94440869D01*
X170861345Y-94441066D01*
X170656583Y-94441213D01*
X170432002Y-94441318D01*
X170186682Y-94441389D01*
X169919704Y-94441432D01*
X169881321Y-94441437D01*
X169615922Y-94441480D01*
X169372050Y-94441525D01*
X169148783Y-94441548D01*
X168945196Y-94441524D01*
X168760367Y-94441430D01*
X168593373Y-94441243D01*
X168443290Y-94440939D01*
X168309196Y-94440494D01*
X168190166Y-94439885D01*
X168085279Y-94439089D01*
X167993610Y-94438080D01*
X167914237Y-94436837D01*
X167846237Y-94435335D01*
X167788686Y-94433551D01*
X167740662Y-94431461D01*
X167701240Y-94429042D01*
X167669499Y-94426270D01*
X167644514Y-94423121D01*
X167625364Y-94419572D01*
X167611123Y-94415598D01*
X167600871Y-94411178D01*
X167593682Y-94406286D01*
X167588635Y-94400900D01*
X167584805Y-94394996D01*
X167581271Y-94388549D01*
X167577108Y-94381537D01*
X167576025Y-94379687D01*
X167573813Y-94374180D01*
X167571786Y-94365868D01*
X167569938Y-94353809D01*
X167568261Y-94337063D01*
X167566745Y-94314687D01*
X167565383Y-94285740D01*
X167564167Y-94249280D01*
X167563089Y-94204367D01*
X167562140Y-94150057D01*
X167561312Y-94085410D01*
X167560597Y-94009484D01*
X167559987Y-93921338D01*
X167559942Y-93912493D01*
X167851378Y-93912493D01*
X167855260Y-93913765D01*
X167878520Y-93915791D01*
X167920874Y-93917626D01*
X167980132Y-93919227D01*
X168054107Y-93920549D01*
X168140610Y-93921548D01*
X168237452Y-93922180D01*
X168342445Y-93922400D01*
X169040651Y-93922400D01*
X170195090Y-93922400D01*
X170194456Y-93846200D01*
X170195574Y-93804160D01*
X170201304Y-93768334D01*
X170213890Y-93730772D01*
X170235568Y-93682577D01*
X170238789Y-93675897D01*
X170264188Y-93626359D01*
X170290996Y-93578369D01*
X170313917Y-93541466D01*
X170318485Y-93534834D01*
X170340516Y-93503593D01*
X170372693Y-93458654D01*
X170413457Y-93402147D01*
X170461245Y-93336204D01*
X170514498Y-93262957D01*
X170571655Y-93184536D01*
X170631155Y-93103072D01*
X170691437Y-93020698D01*
X170750940Y-92939544D01*
X170808105Y-92861742D01*
X170861370Y-92789423D01*
X170909174Y-92724718D01*
X170949957Y-92669759D01*
X170982158Y-92626676D01*
X171004216Y-92597602D01*
X171014571Y-92584667D01*
X171019044Y-92580351D01*
X171023236Y-92578312D01*
X171026643Y-92580926D01*
X171029325Y-92589986D01*
X171031341Y-92607285D01*
X171032748Y-92634614D01*
X171033605Y-92673765D01*
X171033970Y-92726533D01*
X171033903Y-92794707D01*
X171033460Y-92880082D01*
X171032702Y-92984449D01*
X171031685Y-93109600D01*
X171031308Y-93154300D01*
X171030169Y-93275395D01*
X171028972Y-93376688D01*
X171027636Y-93460262D01*
X171026077Y-93528204D01*
X171024215Y-93582599D01*
X171021966Y-93625532D01*
X171019248Y-93659089D01*
X171015979Y-93685355D01*
X171012078Y-93706416D01*
X171007461Y-93724357D01*
X170999192Y-93750770D01*
X170975583Y-93812772D01*
X170949685Y-93865573D01*
X170924535Y-93902645D01*
X170923339Y-93904075D01*
X170921168Y-93908424D01*
X170923328Y-93912026D01*
X170931644Y-93914951D01*
X170947940Y-93917269D01*
X170974041Y-93919051D01*
X171011771Y-93920367D01*
X171062956Y-93921286D01*
X171129420Y-93921878D01*
X171212987Y-93922215D01*
X171315483Y-93922365D01*
X171438732Y-93922400D01*
X171970296Y-93922400D01*
X171931523Y-93864783D01*
X171925432Y-93855893D01*
X171914976Y-93841069D01*
X171905579Y-93827422D01*
X171897183Y-93813765D01*
X171889733Y-93798911D01*
X171883173Y-93781670D01*
X171877446Y-93760855D01*
X171872495Y-93735280D01*
X171868266Y-93703755D01*
X171864701Y-93665093D01*
X171861744Y-93618107D01*
X171859340Y-93561608D01*
X171857431Y-93494409D01*
X171855962Y-93415322D01*
X171854876Y-93323160D01*
X171854118Y-93216734D01*
X171853630Y-93094857D01*
X171853358Y-92956341D01*
X171853243Y-92799999D01*
X171853231Y-92624642D01*
X171853265Y-92429082D01*
X171853289Y-92212133D01*
X171853280Y-92089513D01*
X171853243Y-91884447D01*
X171853227Y-91700116D01*
X171853288Y-91535334D01*
X171853484Y-91388916D01*
X171853870Y-91259674D01*
X171854505Y-91146422D01*
X171855444Y-91047975D01*
X171856745Y-90963144D01*
X171858464Y-90890744D01*
X171860659Y-90829589D01*
X171863385Y-90778492D01*
X171866701Y-90736267D01*
X171870662Y-90701727D01*
X171875325Y-90673686D01*
X171880747Y-90650958D01*
X171886986Y-90632356D01*
X171894097Y-90616693D01*
X171902138Y-90602784D01*
X171911166Y-90589441D01*
X171921236Y-90575479D01*
X171932407Y-90559711D01*
X171972197Y-90501867D01*
X170912314Y-90501867D01*
X170950311Y-90564966D01*
X170964993Y-90590005D01*
X170979531Y-90617586D01*
X170991627Y-90645700D01*
X171001532Y-90676551D01*
X171009494Y-90712344D01*
X171015761Y-90755283D01*
X171020582Y-90807574D01*
X171024206Y-90871419D01*
X171026881Y-90949025D01*
X171028857Y-91042594D01*
X171030382Y-91154333D01*
X171031704Y-91286445D01*
X171032613Y-91406434D01*
X171033020Y-91523063D01*
X171032767Y-91618531D01*
X171031857Y-91692556D01*
X171030293Y-91744855D01*
X171028079Y-91775149D01*
X171025220Y-91783156D01*
X171022161Y-91779858D01*
X171004006Y-91758408D01*
X170974275Y-91721889D01*
X170934639Y-91672442D01*
X170886771Y-91612207D01*
X170832343Y-91543327D01*
X170773027Y-91467943D01*
X170710495Y-91388196D01*
X170646421Y-91306228D01*
X170582475Y-91224180D01*
X170520331Y-91144194D01*
X170461661Y-91068411D01*
X170408137Y-90998973D01*
X170361430Y-90938021D01*
X170323214Y-90887696D01*
X170295161Y-90850140D01*
X170278943Y-90827495D01*
X170233635Y-90755212D01*
X170193661Y-90675463D01*
X170172130Y-90607188D01*
X170168827Y-90549844D01*
X170174116Y-90501867D01*
X169042356Y-90502117D01*
X169081867Y-90532722D01*
X169091248Y-90540089D01*
X169154183Y-90594438D01*
X169222997Y-90662259D01*
X169299596Y-90745516D01*
X169385888Y-90846178D01*
X169403052Y-90866847D01*
X169443833Y-90916409D01*
X169493588Y-90977326D01*
X169550955Y-91047898D01*
X169614569Y-91126424D01*
X169683069Y-91211204D01*
X169755090Y-91300537D01*
X169829270Y-91392722D01*
X169844517Y-91411702D01*
X169904246Y-91486060D01*
X169978653Y-91578848D01*
X170051131Y-91669388D01*
X170120314Y-91755978D01*
X170184841Y-91836918D01*
X170243347Y-91910506D01*
X170294470Y-91975044D01*
X170336847Y-92028829D01*
X170369115Y-92070162D01*
X170389910Y-92097342D01*
X170397869Y-92108668D01*
X170396111Y-92112771D01*
X170383230Y-92133334D01*
X170358885Y-92169561D01*
X170324247Y-92219824D01*
X170280486Y-92282492D01*
X170228775Y-92355936D01*
X170170284Y-92438527D01*
X170106184Y-92528636D01*
X170037646Y-92624631D01*
X169965843Y-92724885D01*
X169891944Y-92827768D01*
X169817121Y-92931650D01*
X169742545Y-93034901D01*
X169669387Y-93135892D01*
X169598819Y-93232994D01*
X169532011Y-93324577D01*
X169470135Y-93409011D01*
X169414361Y-93484667D01*
X169365862Y-93549916D01*
X169325807Y-93603128D01*
X169295369Y-93642673D01*
X169274944Y-93668026D01*
X169228899Y-93722295D01*
X169178612Y-93778775D01*
X169131815Y-93828669D01*
X169040651Y-93922400D01*
X168342445Y-93922400D01*
X168411356Y-93922349D01*
X168509607Y-93922091D01*
X168599030Y-93921637D01*
X168677333Y-93921010D01*
X168742223Y-93920235D01*
X168791411Y-93919335D01*
X168822604Y-93918334D01*
X168833511Y-93917257D01*
X168832322Y-93914037D01*
X168822176Y-93896452D01*
X168805040Y-93870158D01*
X168796540Y-93857691D01*
X168787329Y-93843622D01*
X168779233Y-93829351D01*
X168772185Y-93813479D01*
X168766117Y-93794609D01*
X168760961Y-93771341D01*
X168756651Y-93742278D01*
X168753119Y-93706021D01*
X168750297Y-93661170D01*
X168748118Y-93606328D01*
X168746514Y-93540097D01*
X168745419Y-93461077D01*
X168744765Y-93367871D01*
X168744484Y-93259079D01*
X168744509Y-93133303D01*
X168744772Y-92989145D01*
X168745206Y-92825207D01*
X168745745Y-92640089D01*
X168746279Y-92461232D01*
X168746805Y-92302374D01*
X168747350Y-92163316D01*
X168747945Y-92042665D01*
X168748619Y-91939028D01*
X168749403Y-91851011D01*
X168750326Y-91777223D01*
X168751419Y-91716269D01*
X168752712Y-91666757D01*
X168754235Y-91627293D01*
X168756019Y-91596484D01*
X168758092Y-91572938D01*
X168760486Y-91555260D01*
X168763230Y-91542059D01*
X168766356Y-91531940D01*
X168769892Y-91523511D01*
X168773791Y-91515375D01*
X168793438Y-91478544D01*
X168812225Y-91448391D01*
X168813272Y-91446908D01*
X168827602Y-91424659D01*
X168833511Y-91411702D01*
X168832504Y-91411249D01*
X168815305Y-91409803D01*
X168778656Y-91408480D01*
X168724962Y-91407316D01*
X168656630Y-91406347D01*
X168576064Y-91405611D01*
X168485670Y-91405142D01*
X168387853Y-91404978D01*
X167942195Y-91404978D01*
X167939120Y-92581845D01*
X167936045Y-93758711D01*
X167909407Y-93817622D01*
X167897485Y-93842183D01*
X167880246Y-93872434D01*
X167867074Y-93889560D01*
X167859076Y-93897591D01*
X167851378Y-93912493D01*
X167559942Y-93912493D01*
X167559474Y-93820029D01*
X167559050Y-93704617D01*
X167558706Y-93574160D01*
X167558434Y-93427716D01*
X167558227Y-93264344D01*
X167558076Y-93083101D01*
X167557972Y-92883048D01*
X167557908Y-92663241D01*
X167557876Y-92422739D01*
X167557867Y-92160602D01*
X167557867Y-89969031D01*
X167596249Y-89930649D01*
X167623355Y-89906911D01*
X167650253Y-89895111D01*
X167686560Y-89892267D01*
X167738489Y-89892267D01*
X167738489Y-89980206D01*
X167740427Y-90030102D01*
X167759199Y-90140523D01*
X167796217Y-90241987D01*
X167849369Y-90333152D01*
X167916546Y-90412673D01*
X167995638Y-90479205D01*
X168084534Y-90531406D01*
X168181125Y-90567930D01*
X168283300Y-90587434D01*
X168388950Y-90588573D01*
X168495964Y-90570005D01*
X168602232Y-90530384D01*
X168699219Y-90472516D01*
X168784293Y-90397684D01*
X168853015Y-90309615D01*
X168903918Y-90210616D01*
X168935535Y-90102993D01*
X168946400Y-89989054D01*
X168946400Y-89892267D01*
X170566753Y-89892267D01*
X170777897Y-89892280D01*
X170982020Y-89892330D01*
X171165686Y-89892430D01*
X171329991Y-89892592D01*
X171476029Y-89892829D01*
X171604894Y-89893153D01*
X171717683Y-89893575D01*
X171815488Y-89894109D01*
X171899404Y-89894767D01*
X171970527Y-89895561D01*
X172029950Y-89896504D01*
X172078768Y-89897608D01*
X172118077Y-89898884D01*
X172148969Y-89900347D01*
X172172541Y-89902007D01*
X172189886Y-89903878D01*
X172202099Y-89905972D01*
X172210275Y-89908300D01*
X172215508Y-89910876D01*
X172221504Y-89914445D01*
X172228279Y-89917978D01*
X172234478Y-89921488D01*
X172240126Y-89925918D01*
X172245247Y-89932208D01*
X172249869Y-89941301D01*
X172254015Y-89954139D01*
X172257713Y-89971662D01*
X172260987Y-89994813D01*
X172263863Y-90024534D01*
X172266367Y-90061765D01*
X172268524Y-90107449D01*
X172270360Y-90162527D01*
X172271900Y-90227941D01*
X172273170Y-90304633D01*
X172274195Y-90393544D01*
X172275001Y-90495617D01*
X172275034Y-90501867D01*
X172275614Y-90611792D01*
G37*
%TD*%
M02*
