%TF.GenerationSoftware,KiCad,Pcbnew,10.0.1-1.fc44*%
%TF.CreationDate,2026-06-05T15:52:37+05:30*%
%TF.ProjectId,Led project,4c656420-7072-46f6-9a65-63742e6b6963,rev?*%
%TF.SameCoordinates,Original*%
%TF.FileFunction,Legend,Top*%
%TF.FilePolarity,Positive*%
%FSLAX46Y46*%
G04 Gerber Fmt 4.6, Leading zero omitted, Abs format (unit mm)*
G04 Created by KiCad (PCBNEW 10.0.1-1.fc44) date 2026-06-05 15:52:37*
%MOMM*%
%LPD*%
G01*
G04 APERTURE LIST*
%ADD10C,0.100000*%
%ADD11C,0.150000*%
%ADD12C,0.120000*%
G04 APERTURE END LIST*
D10*
X121303884Y-91991466D02*
X122065789Y-91991466D01*
X121303884Y-100991466D02*
X122065789Y-100991466D01*
X121684836Y-101372419D02*
X121684836Y-100610514D01*
D11*
X133833333Y-99454819D02*
X133500000Y-98978628D01*
X133261905Y-99454819D02*
X133261905Y-98454819D01*
X133261905Y-98454819D02*
X133642857Y-98454819D01*
X133642857Y-98454819D02*
X133738095Y-98502438D01*
X133738095Y-98502438D02*
X133785714Y-98550057D01*
X133785714Y-98550057D02*
X133833333Y-98645295D01*
X133833333Y-98645295D02*
X133833333Y-98788152D01*
X133833333Y-98788152D02*
X133785714Y-98883390D01*
X133785714Y-98883390D02*
X133738095Y-98931009D01*
X133738095Y-98931009D02*
X133642857Y-98978628D01*
X133642857Y-98978628D02*
X133261905Y-98978628D01*
X134785714Y-99454819D02*
X134214286Y-99454819D01*
X134500000Y-99454819D02*
X134500000Y-98454819D01*
X134500000Y-98454819D02*
X134404762Y-98597676D01*
X134404762Y-98597676D02*
X134309524Y-98692914D01*
X134309524Y-98692914D02*
X134214286Y-98740533D01*
X165214285Y-104071009D02*
X165357142Y-104118628D01*
X165357142Y-104118628D02*
X165404761Y-104166247D01*
X165404761Y-104166247D02*
X165452380Y-104261485D01*
X165452380Y-104261485D02*
X165452380Y-104404342D01*
X165452380Y-104404342D02*
X165404761Y-104499580D01*
X165404761Y-104499580D02*
X165357142Y-104547200D01*
X165357142Y-104547200D02*
X165261904Y-104594819D01*
X165261904Y-104594819D02*
X164880952Y-104594819D01*
X164880952Y-104594819D02*
X164880952Y-103594819D01*
X164880952Y-103594819D02*
X165214285Y-103594819D01*
X165214285Y-103594819D02*
X165309523Y-103642438D01*
X165309523Y-103642438D02*
X165357142Y-103690057D01*
X165357142Y-103690057D02*
X165404761Y-103785295D01*
X165404761Y-103785295D02*
X165404761Y-103880533D01*
X165404761Y-103880533D02*
X165357142Y-103975771D01*
X165357142Y-103975771D02*
X165309523Y-104023390D01*
X165309523Y-104023390D02*
X165214285Y-104071009D01*
X165214285Y-104071009D02*
X164880952Y-104071009D01*
X165738095Y-103594819D02*
X166309523Y-103594819D01*
X166023809Y-104594819D02*
X166023809Y-103594819D01*
X167166666Y-104594819D02*
X166595238Y-104594819D01*
X166880952Y-104594819D02*
X166880952Y-103594819D01*
X166880952Y-103594819D02*
X166785714Y-103737676D01*
X166785714Y-103737676D02*
X166690476Y-103832914D01*
X166690476Y-103832914D02*
X166595238Y-103880533D01*
X125261905Y-93454819D02*
X125261905Y-92454819D01*
X125261905Y-92454819D02*
X125500000Y-92454819D01*
X125500000Y-92454819D02*
X125642857Y-92502438D01*
X125642857Y-92502438D02*
X125738095Y-92597676D01*
X125738095Y-92597676D02*
X125785714Y-92692914D01*
X125785714Y-92692914D02*
X125833333Y-92883390D01*
X125833333Y-92883390D02*
X125833333Y-93026247D01*
X125833333Y-93026247D02*
X125785714Y-93216723D01*
X125785714Y-93216723D02*
X125738095Y-93311961D01*
X125738095Y-93311961D02*
X125642857Y-93407200D01*
X125642857Y-93407200D02*
X125500000Y-93454819D01*
X125500000Y-93454819D02*
X125261905Y-93454819D01*
X126785714Y-93454819D02*
X126214286Y-93454819D01*
X126500000Y-93454819D02*
X126500000Y-92454819D01*
X126500000Y-92454819D02*
X126404762Y-92597676D01*
X126404762Y-92597676D02*
X126309524Y-92692914D01*
X126309524Y-92692914D02*
X126214286Y-92740533D01*
X117954819Y-97142857D02*
X117954819Y-97619047D01*
X117954819Y-97619047D02*
X116954819Y-97619047D01*
X117431009Y-96809523D02*
X117431009Y-96476190D01*
X117954819Y-96333333D02*
X117954819Y-96809523D01*
X117954819Y-96809523D02*
X116954819Y-96809523D01*
X116954819Y-96809523D02*
X116954819Y-96333333D01*
X117954819Y-95904761D02*
X116954819Y-95904761D01*
X116954819Y-95904761D02*
X116954819Y-95666666D01*
X116954819Y-95666666D02*
X117002438Y-95523809D01*
X117002438Y-95523809D02*
X117097676Y-95428571D01*
X117097676Y-95428571D02*
X117192914Y-95380952D01*
X117192914Y-95380952D02*
X117383390Y-95333333D01*
X117383390Y-95333333D02*
X117526247Y-95333333D01*
X117526247Y-95333333D02*
X117716723Y-95380952D01*
X117716723Y-95380952D02*
X117811961Y-95428571D01*
X117811961Y-95428571D02*
X117907200Y-95523809D01*
X117907200Y-95523809D02*
X117954819Y-95666666D01*
X117954819Y-95666666D02*
X117954819Y-95904761D01*
X141896667Y-92627200D02*
X142039524Y-92674819D01*
X142039524Y-92674819D02*
X142277619Y-92674819D01*
X142277619Y-92674819D02*
X142372857Y-92627200D01*
X142372857Y-92627200D02*
X142420476Y-92579580D01*
X142420476Y-92579580D02*
X142468095Y-92484342D01*
X142468095Y-92484342D02*
X142468095Y-92389104D01*
X142468095Y-92389104D02*
X142420476Y-92293866D01*
X142420476Y-92293866D02*
X142372857Y-92246247D01*
X142372857Y-92246247D02*
X142277619Y-92198628D01*
X142277619Y-92198628D02*
X142087143Y-92151009D01*
X142087143Y-92151009D02*
X141991905Y-92103390D01*
X141991905Y-92103390D02*
X141944286Y-92055771D01*
X141944286Y-92055771D02*
X141896667Y-91960533D01*
X141896667Y-91960533D02*
X141896667Y-91865295D01*
X141896667Y-91865295D02*
X141944286Y-91770057D01*
X141944286Y-91770057D02*
X141991905Y-91722438D01*
X141991905Y-91722438D02*
X142087143Y-91674819D01*
X142087143Y-91674819D02*
X142325238Y-91674819D01*
X142325238Y-91674819D02*
X142468095Y-91722438D01*
X142801429Y-91674819D02*
X143039524Y-92674819D01*
X143039524Y-92674819D02*
X143230000Y-91960533D01*
X143230000Y-91960533D02*
X143420476Y-92674819D01*
X143420476Y-92674819D02*
X143658572Y-91674819D01*
X144563333Y-92674819D02*
X143991905Y-92674819D01*
X144277619Y-92674819D02*
X144277619Y-91674819D01*
X144277619Y-91674819D02*
X144182381Y-91817676D01*
X144182381Y-91817676D02*
X144087143Y-91912914D01*
X144087143Y-91912914D02*
X143991905Y-91960533D01*
%TO.C,R1*%
D12*
X136250000Y-93650000D02*
X136250000Y-94600000D01*
X136250000Y-99390000D02*
X136250000Y-98440000D01*
X135330000Y-94600000D02*
X137170000Y-94600000D01*
X137170000Y-98440000D01*
X135330000Y-98440000D01*
X135330000Y-94600000D01*
%TO.C,BT1*%
X158152700Y-88410000D02*
X173847300Y-88410000D01*
X176692000Y-92910000D02*
X180310000Y-92910000D01*
X151690000Y-92910000D02*
X155308000Y-92910000D01*
X180310000Y-94620000D02*
X180310000Y-92910000D01*
X151690000Y-94620000D02*
X151690000Y-92910000D01*
X180310000Y-98420000D02*
X180310000Y-100130000D01*
X151690000Y-98420000D02*
X151690000Y-100130000D01*
X180310000Y-100130000D02*
X176692000Y-100130000D01*
X155308000Y-100130000D02*
X151690000Y-100130000D01*
X167660000Y-102430000D02*
X164340000Y-102430000D01*
X167660000Y-102430000D02*
X169860000Y-104630000D01*
X164340000Y-102430000D02*
X162140000Y-104630000D01*
X173847300Y-104630000D02*
X169860000Y-104630000D01*
X162140000Y-104630000D02*
X158152700Y-104630000D01*
X173845371Y-88408211D02*
G75*
G02*
X176692000Y-92910000I-7845371J-8111789D01*
G01*
X155308000Y-92910000D02*
G75*
G02*
X158154628Y-88408210I10692020J-3610010D01*
G01*
X176692000Y-100130000D02*
G75*
G02*
X173845371Y-104631789I-10692020J3610012D01*
G01*
X158154629Y-104631789D02*
G75*
G02*
X155308000Y-100130000I7845366J8111785D01*
G01*
%TO.C,D1*%
X123295000Y-93955000D02*
X120205000Y-93955000D01*
X121750000Y-99505000D02*
G75*
G02*
X120205170Y-93955000I0J2990000D01*
G01*
X123294830Y-93955000D02*
G75*
G02*
X121750000Y-99505000I-1544830J-2560000D01*
G01*
X124250000Y-96515000D02*
G75*
G02*
X119250000Y-96515000I-2500000J0D01*
G01*
X119250000Y-96515000D02*
G75*
G02*
X124250000Y-96515000I2500000J0D01*
G01*
%TO.C,SW1*%
X140110000Y-97620000D02*
X140110000Y-95420000D01*
X140730000Y-93400000D02*
X145730000Y-93400000D01*
X140730000Y-99640000D02*
X145730000Y-99640000D01*
X146350000Y-95420000D02*
X146350000Y-97620000D01*
X144980000Y-96520000D02*
G75*
G02*
X141480000Y-96520000I-1750000J0D01*
G01*
X141480000Y-96520000D02*
G75*
G02*
X144980000Y-96520000I1750000J0D01*
G01*
%TD*%
M02*
